<svg xmlns="http://www.w3.org/2000/svg" width="696.881" height="135.631" viewBox="0 0 696.881 135.631">
  <g id="Group_11534" data-name="Group 11534" transform="translate(-5806.684 -3416)">
    <g id="Group_11527" data-name="Group 11527" transform="translate(5806.684 3416)">
      <g id="Group_10810" data-name="Group 10810" transform="translate(23.947 0)">
        <g id="Group_10778" data-name="Group 10778">
          <path id="Path_776" data-name="Path 776" d="M0,0H293.507V52.7H0Z" fill="#f8f8f8"/>
          <path id="Path_76" data-name="Path 76" d="M988.493,3969.413l25.3-51.6H954.88v51.6Z" transform="translate(-953.891 -3917.81)"/>
          <text id="WEB_DEVELOPMENT" data-name="WEB DEVELOPMENT" transform="translate(59.906 33.426)" font-size="19" font-family="Montserrat" font-weight="700" letter-spacing="0.02em"><tspan x="0" y="0">WEB </tspan><tspan y="0" font-size="17" letter-spacing="0.022em">DEVELOPMENT</tspan></text>
          <text id="_01" data-name="01" transform="translate(13.046 28.394)" fill="#fff" font-size="16" font-family="SegoeUI-Semibold, Segoe UI" font-weight="600"><tspan x="0" y="0">01</tspan></text>
        </g>
        <path id="Path_87" data-name="Path 87" d="M0,0H8.042V52.7H0Z" transform="translate(285.245)"/>
      </g>
      <g id="Group_11529" data-name="Group 11529" transform="translate(0 81.86)">
        <g id="Group_11530" data-name="Group 11530">
          <g id="Group_10812" data-name="Group 10812">
            <g id="Group_10778-2" data-name="Group 10778">
              <rect id="Rectangle_15" data-name="Rectangle 15" width="291.994" height="53.77" transform="translate(25.46)" fill="#f8f8f8"/>
              <path id="Path_76-2" data-name="Path 76" d="M980.184,3917.81l-25.3,53.771H1013.8V3917.81Z" transform="translate(-954.88 -3917.81)"/>
              <text id="MOBILE_DEVELOPMENT_" data-name="MOBILE DEVELOPMENT " transform="translate(70.842 31.258)" font-size="19" font-family="Montserrat" font-weight="700" letter-spacing="0.02em"><tspan x="0" y="0">MOBILE </tspan><tspan y="0" font-size="17" letter-spacing="0.022em">DEVELOPMENT</tspan></text>
              <text id="_02" data-name="02" transform="translate(25.46 29.876)" fill="#fff" font-size="15" font-family="SegoeUI-Semibold, Segoe UI" font-weight="600"><tspan x="0" y="0">02</tspan></text>
            </g>
          </g>
          <path id="Path_777" data-name="Path 777" d="M0,0H8.042V52.7H0Z" transform="translate(309.411)"/>
        </g>
      </g>
    </g>
    <g id="Group_11531" data-name="Group 11531" transform="translate(6186.11 3416)">
      <g id="Group_10812-2" data-name="Group 10812" transform="translate(0 0)">
        <g id="Group_10778-3" data-name="Group 10778">
          <rect id="Rectangle_15-2" data-name="Rectangle 15" width="291.994" height="53.77" transform="translate(25.46)" fill="#f8f8f8"/>
          <path id="Path_76-3" data-name="Path 76" d="M980.184,3917.81l-25.3,53.771H1013.8V3917.81Z" transform="translate(-954.88 -3917.81)"/>
          <text id="MOBILE_DEVELOPMENT_2" data-name="MOBILE DEVELOPMENT " transform="translate(70.842 31.258)" font-size="19" font-family="Montserrat" font-weight="700" letter-spacing="0.02em"><tspan x="0" y="0">MOBILE </tspan><tspan y="0" font-size="17" letter-spacing="0.022em">DEVELOPMENT</tspan></text>
          <text id="_03" data-name="03" transform="translate(25.46 29.876)" fill="#fff" font-size="15" font-family="SegoeUI-Semibold, Segoe UI" font-weight="600"><tspan x="0" y="0">03</tspan></text>
        </g>
      </g>
      <path id="Path_777-2" data-name="Path 777" d="M0,0H8.042V52.7H0Z" transform="translate(309.411 0)"/>
    </g>
    <g id="Group_11533" data-name="Group 11533" transform="translate(6186.11 3498.934)">
      <g id="Group_10778-4" data-name="Group 10778" transform="translate(0 0)">
        <path id="Path_776-2" data-name="Path 776" d="M0,0H317.452V52.7H0Z" fill="#f8f8f8"/>
        <path id="Path_76-4" data-name="Path 76" d="M988.493,3969.413l25.3-51.6H954.88v51.6Z" transform="translate(-953.891 -3917.81)"/>
        <text id="BackEnd_Servier" data-name="BackEnd Servier" transform="translate(81.682 31.562)" font-size="19" font-family="Montserrat" font-weight="700" letter-spacing="0.02em"><tspan x="0" y="0">BACKEND SERVIER</tspan></text>
        <text id="_04" data-name="04" transform="translate(13.046 27.394)" fill="#fff" font-size="15" font-family="SegoeUI-Semibold, Segoe UI" font-weight="600"><tspan x="0" y="0">04</tspan></text>
      </g>
      <path id="Path_87-2" data-name="Path 87" d="M0,0H8.042V52.7H0Z" transform="translate(309.19 0)"/>
    </g>
  </g>
</svg>
