<svg xmlns="http://www.w3.org/2000/svg" xmlns:xlink="http://www.w3.org/1999/xlink" viewBox="0 0 400 369.11"><defs><style>.cls-1{isolation:isolate;}.cls-104,.cls-2{fill:#e7ecff;}.cls-3{fill:url(#Áåçûìÿííûé_ãðàäèåíò_257);}.cls-4{fill:url(#Áåçûìÿííûé_ãðàäèåíò_257-2);}.cls-5{fill:url(#Áåçûìÿííûé_ãðàäèåíò_133);}.cls-6{fill:#ed90bc;}.cls-100,.cls-101,.cls-105,.cls-106,.cls-11,.cls-114,.cls-117,.cls-118,.cls-119,.cls-123,.cls-124,.cls-125,.cls-127,.cls-128,.cls-129,.cls-130,.cls-131,.cls-132,.cls-133,.cls-134,.cls-135,.cls-136,.cls-141,.cls-146,.cls-147,.cls-148,.cls-149,.cls-150,.cls-151,.cls-153,.cls-154,.cls-155,.cls-156,.cls-157,.cls-158,.cls-16,.cls-17,.cls-24,.cls-25,.cls-26,.cls-27,.cls-35,.cls-36,.cls-37,.cls-38,.cls-39,.cls-40,.cls-41,.cls-42,.cls-43,.cls-44,.cls-45,.cls-46,.cls-47,.cls-48,.cls-50,.cls-52,.cls-53,.cls-54,.cls-55,.cls-56,.cls-57,.cls-58,.cls-59,.cls-6,.cls-62,.cls-63,.cls-64,.cls-65,.cls-67,.cls-68,.cls-70,.cls-74,.cls-77,.cls-78,.cls-85,.cls-86,.cls-87,.cls-88,.cls-89,.cls-92,.cls-93,.cls-94,.cls-95,.cls-96,.cls-99{mix-blend-mode:multiply;}.cls-7{fill:url(#Áåçûìÿííûé_ãðàäèåíò_26);}.cls-8{fill:url(#Áåçûìÿííûé_ãðàäèåíò_177);}.cls-9{fill:url(#Áåçûìÿííûé_ãðàäèåíò_257-3);}.cls-10{fill:url(#Áåçûìÿííûé_ãðàäèåíò_67);}.cls-11{fill:#e0a1c6;}.cls-12{fill:url(#Áåçûìÿííûé_ãðàäèåíò_26-2);}.cls-13{fill:url(#Áåçûìÿííûé_ãðàäèåíò_159);}.cls-14{fill:url(#Áåçûìÿííûé_ãðàäèåíò_257-4);}.cls-15{fill:url(#Áåçûìÿííûé_ãðàäèåíò_177-2);}.cls-16{fill:url(#Áåçûìÿííûé_ãðàäèåíò_200);}.cls-17{fill:#feb1c8;}.cls-18{fill:url(#Áåçûìÿííûé_ãðàäèåíò_257-5);}.cls-19{fill:url(#Áåçûìÿííûé_ãðàäèåíò_149);}.cls-20{fill:url(#Áåçûìÿííûé_ãðàäèåíò_248);}.cls-21{fill:url(#Áåçûìÿííûé_ãðàäèåíò_123);}.cls-22{fill:url(#Áåçûìÿííûé_ãðàäèåíò_177-3);}.cls-23{fill:url(#Áåçûìÿííûé_ãðàäèåíò_177-4);}.cls-24{fill:url(#Áåçûìÿííûé_ãðàäèåíò_183);}.cls-25{fill:url(#Áåçûìÿííûé_ãðàäèåíò_183-2);}.cls-26{fill:#a44f63;}.cls-26,.cls-53{opacity:0.62;}.cls-125,.cls-149,.cls-150,.cls-151,.cls-27,.cls-41,.cls-61{opacity:0.5;}.cls-27{fill:url(#Áåçûìÿííûé_ãðàäèåíò_188);}.cls-28{fill:#ffe4ec;}.cls-29{fill:url(#Áåçûìÿííûé_ãðàäèåíò_257-6);}.cls-30{fill:url(#Áåçûìÿííûé_ãðàäèåíò_257-7);}.cls-31{fill:url(#Áåçûìÿííûé_ãðàäèåíò_257-8);}.cls-32{fill:url(#Áåçûìÿííûé_ãðàäèåíò_257-9);}.cls-33{fill:url(#Áåçûìÿííûé_ãðàäèåíò_257-10);}.cls-34{fill:url(#Áåçûìÿííûé_ãðàäèåíò_257-11);}.cls-35{fill:url(#Áåçûìÿííûé_ãðàäèåíò_207);}.cls-36{fill:url(#Áåçûìÿííûé_ãðàäèåíò_205);}.cls-37{fill:url(#Áåçûìÿííûé_ãðàäèåíò_206);}.cls-38{fill:url(#Áåçûìÿííûé_ãðàäèåíò_208);}.cls-39{fill:#d1729b;}.cls-127,.cls-128,.cls-129,.cls-130,.cls-131,.cls-132,.cls-133,.cls-134,.cls-135,.cls-40{opacity:0.8;}.cls-40{fill:url(#Áåçûìÿííûé_ãðàäèåíò_229);}.cls-41{fill:url(#Áåçûìÿííûé_ãðàäèåíò_207-2);}.cls-42{fill:#e392ad;}.cls-43{fill:url(#Áåçûìÿííûé_ãðàäèåíò_225);}.cls-44{fill:url(#Áåçûìÿííûé_ãðàäèåíò_225-2);}.cls-45{fill:url(#Áåçûìÿííûé_ãðàäèåíò_226);}.cls-46{fill:url(#Áåçûìÿííûé_ãðàäèåíò_225-3);}.cls-47{fill:url(#Áåçûìÿííûé_ãðàäèåíò_225-4);}.cls-48{fill:url(#Áåçûìÿííûé_ãðàäèåíò_225-5);}.cls-49{fill:url(#Áåçûìÿííûé_ãðàäèåíò_177-5);}.cls-50,.cls-68{fill:#fe9dba;}.cls-51{fill:#ffe4db;}.cls-52{fill:#fed2df;}.cls-53{fill:url(#Áåçûìÿííûé_ãðàäèåíò_75);}.cls-54{fill:url(#Áåçûìÿííûé_ãðàäèåíò_236);}.cls-55{fill:url(#Áåçûìÿííûé_ãðàäèåíò_236-2);}.cls-56{fill:url(#Áåçûìÿííûé_ãðàäèåíò_236-3);}.cls-57{fill:url(#Áåçûìÿííûé_ãðàäèåíò_236-4);}.cls-58{fill:url(#Áåçûìÿííûé_ãðàäèåíò_237);}.cls-59{fill:url(#Áåçûìÿííûé_ãðàäèåíò_238);}.cls-152,.cls-60,.cls-61,.cls-69{fill:#fff;}.cls-104,.cls-112,.cls-152,.cls-61,.cls-69{mix-blend-mode:soft-light;}.cls-62{fill:#d190bc;}.cls-63{fill:url(#Áåçûìÿííûé_ãðàäèåíò_238-2);}.cls-64{fill:url(#Áåçûìÿííûé_ãðàäèåíò_239);}.cls-65{fill:url(#Áåçûìÿííûé_ãðàäèåíò_240);}.cls-66{fill:url(#Áåçûìÿííûé_ãðàäèåíò_123-2);}.cls-67{fill:url(#Áåçûìÿííûé_ãðàäèåíò_242);}.cls-68{opacity:0.4;}.cls-70,.cls-71{fill:#4b81ee;}.cls-72{fill:url(#Áåçûìÿííûé_ãðàäèåíò_148);}.cls-73{fill:url(#Áåçûìÿííûé_ãðàäèåíò_26-3);}.cls-74{fill:url(#Áåçûìÿííûé_ãðàäèåíò_200-2);}.cls-75{fill:url(#Áåçûìÿííûé_ãðàäèåíò_26-4);}.cls-76{fill:url(#Áåçûìÿííûé_ãðàäèåíò_26-5);}.cls-77{fill:url(#Áåçûìÿííûé_ãðàäèåíò_200-3);}.cls-78{fill:url(#Áåçûìÿííûé_ãðàäèåíò_200-4);}.cls-79{fill:url(#Áåçûìÿííûé_ãðàäèåíò_257-12);}.cls-80{fill:url(#Áåçûìÿííûé_ãðàäèåíò_29);}.cls-81{fill:url(#Áåçûìÿííûé_ãðàäèåíò_38);}.cls-82{fill:url(#Áåçûìÿííûé_ãðàäèåíò_198);}.cls-83{fill:url(#Áåçûìÿííûé_ãðàäèåíò_38-2);}.cls-84{fill:url(#Áåçûìÿííûé_ãðàäèåíò_288);}.cls-85{fill:url(#Áåçûìÿííûé_ãðàäèåíò_200-5);}.cls-86{fill:url(#Áåçûìÿííûé_ãðàäèåíò_183-3);}.cls-87{fill:url(#Áåçûìÿííûé_ãðàäèåíò_183-4);}.cls-88{fill:#d1a1c8;}.cls-89{fill:url(#Áåçûìÿííûé_ãðàäèåíò_183-5);}.cls-90{fill:#7f6186;}.cls-91{fill:#6c2a51;}.cls-92{fill:#bf7988;}.cls-93{fill:url(#Áåçûìÿííûé_ãðàäèåíò_200-6);}.cls-94{fill:url(#Áåçûìÿííûé_ãðàäèåíò_200-7);}.cls-95{fill:url(#Áåçûìÿííûé_ãðàäèåíò_44);}.cls-96{fill:url(#Áåçûìÿííûé_ãðàäèåíò_44-2);}.cls-97{fill:url(#Áåçûìÿííûé_ãðàäèåíò_51);}.cls-98{fill:url(#Áåçûìÿííûé_ãðàäèåíò_51-2);}.cls-99{fill:url(#Áåçûìÿííûé_ãðàäèåíò_53);}.cls-100{fill:url(#Áåçûìÿííûé_ãðàäèåíò_207-3);}.cls-101{fill:url(#Áåçûìÿííûé_ãðàäèåíò_207-4);}.cls-102{fill:url(#Áåçûìÿííûé_ãðàäèåíò_257-13);}.cls-103{fill:url(#Áåçûìÿííûé_ãðàäèåíò_257-14);}.cls-105{fill:url(#Áåçûìÿííûé_ãðàäèåíò_58);}.cls-106{fill:#ffb8cb;}.cls-107{fill:url(#Áåçûìÿííûé_ãðàäèåíò_38-3);}.cls-108{fill:url(#Áåçûìÿííûé_ãðàäèåíò_38-4);}.cls-109{fill:url(#Áåçûìÿííûé_ãðàäèåíò_38-5);}.cls-110{fill:url(#Áåçûìÿííûé_ãðàäèåíò_38-6);}.cls-111{fill:#5143a1;}.cls-112{fill:#5cf1ff;}.cls-113{fill:url(#Áåçûìÿííûé_ãðàäèåíò_257-15);}.cls-114{fill:url(#Áåçûìÿííûé_ãðàäèåíò_200-8);}.cls-115{fill:url(#Áåçûìÿííûé_ãðàäèåíò_67-2);}.cls-116{fill:url(#Áåçûìÿííûé_ãðàäèåíò_67-3);}.cls-117{fill:url(#Áåçûìÿííûé_ãðàäèåíò_82);}.cls-118{fill:url(#Áåçûìÿííûé_ãðàäèåíò_82-2);}.cls-119{fill:url(#Áåçûìÿííûé_ãðàäèåíò_98);}.cls-120{fill:url(#Áåçûìÿííûé_ãðàäèåíò_89);}.cls-121{fill:url(#Áåçûìÿííûé_ãðàäèåíò_88);}.cls-122{fill:url(#Áåçûìÿííûé_ãðàäèåíò_85);}.cls-123{fill:url(#Áåçûìÿííûé_ãðàäèåíò_183-6);}.cls-124{fill:url(#Áåçûìÿííûé_ãðàäèåíò_183-7);}.cls-125{fill:url(#Áåçûìÿííûé_ãðàäèåíò_100);}.cls-126{fill:url(#Áåçûìÿííûé_ãðàäèåíò_38-7);}.cls-127{fill:url(#Áåçûìÿííûé_ãðàäèåíò_207-5);}.cls-128{fill:url(#Áåçûìÿííûé_ãðàäèåíò_101);}.cls-129{fill:url(#Áåçûìÿííûé_ãðàäèåíò_207-6);}.cls-130{fill:url(#Áåçûìÿííûé_ãðàäèåíò_101-2);}.cls-131{fill:url(#Áåçûìÿííûé_ãðàäèåíò_114);}.cls-132{fill:url(#Áåçûìÿííûé_ãðàäèåíò_207-7);}.cls-133{fill:url(#Áåçûìÿííûé_ãðàäèåíò_207-8);}.cls-134{fill:url(#Áåçûìÿííûé_ãðàäèåíò_207-9);}.cls-135{fill:url(#Áåçûìÿííûé_ãðàäèåíò_207-10);}.cls-136{fill:url(#Áåçûìÿííûé_ãðàäèåíò_207-11);}.cls-137{fill:url(#Áåçûìÿííûé_ãðàäèåíò_26-6);}.cls-138{fill:url(#Áåçûìÿííûé_ãðàäèåíò_108);}.cls-139{fill:url(#Áåçûìÿííûé_ãðàäèåíò_198-2);}.cls-140{fill:url(#Áåçûìÿííûé_ãðàäèåíò_38-8);}.cls-141{fill:#bfa1bc;}.cls-142{fill:url(#Áåçûìÿííûé_ãðàäèåíò_38-9);}.cls-143{fill:url(#Áåçûìÿííûé_ãðàäèåíò_198-3);}.cls-144{fill:url(#Áåçûìÿííûé_ãðàäèåíò_113);}.cls-145{fill:url(#Áåçûìÿííûé_ãðàäèåíò_133-2);}.cls-146{fill:#ebc2d4;}.cls-147{fill:url(#Áåçûìÿííûé_ãðàäèåíò_183-8);}.cls-148{fill:url(#Áåçûìÿííûé_ãðàäèåíò_183-9);}.cls-149{fill:url(#Áåçûìÿííûé_ãðàäèåíò_114-2);}.cls-150{fill:url(#Áåçûìÿííûé_ãðàäèåíò_114-3);}.cls-151{fill:url(#Áåçûìÿííûé_ãðàäèåíò_200-9);}.cls-152{opacity:0.2;}.cls-153{fill:url(#Áåçûìÿííûé_ãðàäèåíò_115);}.cls-154{fill:url(#Áåçûìÿííûé_ãðàäèåíò_115-2);}.cls-155{fill:url(#Áåçûìÿííûé_ãðàäèåíò_116);}.cls-156{fill:url(#Áåçûìÿííûé_ãðàäèåíò_116-2);}.cls-157{fill:url(#Áåçûìÿííûé_ãðàäèåíò_98-2);}.cls-158{fill:url(#Áåçûìÿííûé_ãðàäèåíò_98-3);}</style><linearGradient id="Áåçûìÿííûé_ãðàäèåíò_257" x1="243.64" y1="174.2" x2="326.51" y2="174.2" gradientUnits="userSpaceOnUse"><stop offset="0" stop-color="#3e2987"/><stop offset="0.57" stop-color="#2c2f90"/><stop offset="1" stop-color="#243294"/></linearGradient><linearGradient id="Áåçûìÿííûé_ãðàäèåíò_257-2" x1="295.93" y1="177.04" x2="323.95" y2="177.04" xlink:href="#Áåçûìÿííûé_ãðàäèåíò_257"/><linearGradient id="Áåçûìÿííûé_ãðàäèåíò_133" x1="361.01" y1="191.42" x2="361.01" y2="188.42" gradientUnits="userSpaceOnUse"><stop offset="0" stop-color="#d8caef"/><stop offset="1" stop-color="#eadef4"/></linearGradient><linearGradient id="Áåçûìÿííûé_ãðàäèåíò_26" x1="326.04" y1="222.87" x2="326.04" y2="200.35" gradientUnits="userSpaceOnUse"><stop offset="0.02" stop-color="#ffa67f"/><stop offset="1" stop-color="#ff8b7c"/></linearGradient><linearGradient id="Áåçûìÿííûé_ãðàäèåíò_177" x1="309.17" y1="170.77" x2="309.17" y2="98.96" gradientUnits="userSpaceOnUse"><stop offset="0.02" stop-color="#ffc2a6"/><stop offset="1" stop-color="#ffb595"/></linearGradient><linearGradient id="Áåçûìÿííûé_ãðàäèåíò_257-3" x1="293.85" y1="114.64" x2="330.33" y2="114.64" xlink:href="#Áåçûìÿííûé_ãðàäèåíò_257"/><linearGradient id="Áåçûìÿííûé_ãðàäèåíò_67" x1="299.32" y1="400" x2="299.32" y2="259.53" gradientUnits="userSpaceOnUse"><stop offset="0" stop-color="#38328a"/><stop offset="1" stop-color="#5c43a2"/></linearGradient><linearGradient id="Áåçûìÿííûé_ãðàäèåíò_26-2" x1="293.27" y1="196.29" x2="293.27" y2="150.96" xlink:href="#Áåçûìÿííûé_ãðàäèåíò_26"/><linearGradient id="Áåçûìÿííûé_ãðàäèåíò_159" x1="320" y1="219.91" x2="320" y2="182.81" gradientUnits="userSpaceOnUse"><stop offset="0" stop-color="#301361"/><stop offset="1" stop-color="#482c6a"/></linearGradient><linearGradient id="Áåçûìÿííûé_ãðàäèåíò_257-4" x1="231.64" y1="165.09" x2="339.37" y2="165.09" xlink:href="#Áåçûìÿííûé_ãðàäèåíò_257"/><linearGradient id="Áåçûìÿííûé_ãðàäèåíò_177-2" x1="282.57" y1="148.67" x2="282.57" y2="128.07" xlink:href="#Áåçûìÿííûé_ãðàäèåíò_177"/><linearGradient id="Áåçûìÿííûé_ãðàäèåíò_200" x1="281.95" y1="146.41" x2="281.95" y2="132.24" gradientUnits="userSpaceOnUse"><stop offset="0.02" stop-color="#fff"/><stop offset="0.99" stop-color="#f29dc8"/></linearGradient><linearGradient id="Áåçûìÿííûé_ãðàäèåíò_257-5" x1="259.44" y1="166.9" x2="293.85" y2="166.9" xlink:href="#Áåçûìÿííûé_ãðàäèåíò_257"/><linearGradient id="Áåçûìÿííûé_ãðàäèåíò_149" x1="339.93" y1="274.47" x2="339.93" y2="221.55" gradientUnits="userSpaceOnUse"><stop offset="0.02" stop-color="#ff8d90"/><stop offset="1" stop-color="#ffa684"/></linearGradient><linearGradient id="Áåçûìÿííûé_ãðàäèåíò_248" x1="327.8" y1="260.01" x2="327.8" y2="190.47" gradientUnits="userSpaceOnUse"><stop offset="0" stop-color="#a586c9"/><stop offset="1" stop-color="#b1a4d3"/></linearGradient><linearGradient id="Áåçûìÿííûé_ãðàäèåíò_123" x1="349.22" y1="260.58" x2="349.22" y2="189.79" gradientUnits="userSpaceOnUse"><stop offset="0" stop-color="#c9b6e9"/><stop offset="1" stop-color="#d5bdea"/></linearGradient><linearGradient id="Áåçûìÿííûé_ãðàäèåíò_177-3" x1="369.98" y1="223.69" x2="369.98" y2="202.45" xlink:href="#Áåçûìÿííûé_ãðàäèåíò_177"/><linearGradient id="Áåçûìÿííûé_ãðàäèåíò_177-4" x1="366.37" y1="227.94" x2="366.37" y2="222.43" xlink:href="#Áåçûìÿííûé_ãðàäèåíò_177"/><linearGradient id="Áåçûìÿííûé_ãðàäèåíò_183" x1="313.83" y1="153.73" x2="324.72" y2="153.73" gradientUnits="userSpaceOnUse"><stop offset="0.02" stop-color="#fff"/><stop offset="0.99" stop-color="#ea9dc8"/></linearGradient><linearGradient id="Áåçûìÿííûé_ãðàäèåíò_183-2" x1="314.38" y1="155.42" x2="314.38" y2="151.38" xlink:href="#Áåçûìÿííûé_ãðàäèåíò_183"/><linearGradient id="Áåçûìÿííûé_ãðàäèåíò_188" x1="313.83" y1="152.98" x2="313.83" y2="129.93" gradientUnits="userSpaceOnUse"><stop offset="0.02" stop-color="#fff"/><stop offset="0.99" stop-color="#f7839a"/></linearGradient><linearGradient id="Áåçûìÿííûé_ãðàäèåíò_257-6" x1="303.24" y1="144.45" x2="311.6" y2="144.45" xlink:href="#Áåçûìÿííûé_ãðàäèåíò_257"/><linearGradient id="Áåçûìÿííûé_ãðàäèåíò_257-7" x1="323.26" y1="146.61" x2="327.78" y2="146.61" xlink:href="#Áåçûìÿííûé_ãðàäèåíò_257"/><linearGradient id="Áåçûìÿííûé_ãðàäèåíò_257-8" x1="324.72" y1="131.08" x2="332.67" y2="131.08" xlink:href="#Áåçûìÿííûé_ãðàäèåíò_257"/><linearGradient id="Áåçûìÿííûé_ãðàäèåíò_257-9" x1="300.47" y1="128.62" x2="317.67" y2="128.62" xlink:href="#Áåçûìÿííûé_ãðàäèåíò_257"/><linearGradient id="Áåçûìÿííûé_ãðàäèåíò_257-10" x1="315.23" y1="165.14" x2="315.23" y2="156.57" xlink:href="#Áåçûìÿííûé_ãðàäèåíò_257"/><linearGradient id="Áåçûìÿííûé_ãðàäèåíò_257-11" x1="308.3" y1="159.63" x2="322.16" y2="159.63" xlink:href="#Áåçûìÿííûé_ãðàäèåíò_257"/><linearGradient id="Áåçûìÿííûé_ãðàäèåíò_207" x1="277.18" y1="122.28" x2="303.24" y2="122.28" gradientUnits="userSpaceOnUse"><stop offset="0.01" stop-color="#c2798b"/><stop offset="0.98" stop-color="#fff"/></linearGradient><linearGradient id="Áåçûìÿííûé_ãðàäèåíò_205" x1="297.52" y1="128.07" x2="297.52" y2="96.34" xlink:href="#Áåçûìÿííûé_ãðàäèåíò_207"/><linearGradient id="Áåçûìÿííûé_ãðàäèåíò_206" x1="294.71" y1="128.74" x2="294.71" y2="92.06" xlink:href="#Áåçûìÿííûé_ãðàäèåíò_207"/><linearGradient id="Áåçûìÿííûé_ãðàäèåíò_208" x1="271.44" y1="196.29" x2="271.44" y2="133.73" gradientUnits="userSpaceOnUse"><stop offset="0.02" stop-color="#fff"/><stop offset="0.99" stop-color="#c2798b"/></linearGradient><linearGradient id="Áåçûìÿííûé_ãðàäèåíò_229" x1="301.76" y1="228.49" x2="301.76" y2="201.73" gradientUnits="userSpaceOnUse"><stop offset="0.01" stop-color="#e38b8b"/><stop offset="0.98" stop-color="#fff"/></linearGradient><linearGradient id="Áåçûìÿííûé_ãðàäèåíò_207-2" x1="240.88" y1="218.99" x2="252.74" y2="218.99" xlink:href="#Áåçûìÿííûé_ãðàäèåíò_207"/><linearGradient id="Áåçûìÿííûé_ãðàäèåíò_225" x1="276.39" y1="239.33" x2="276.39" y2="213.46" gradientUnits="userSpaceOnUse"><stop offset="0" stop-color="#e59db0"/><stop offset="0.98" stop-color="#fff"/></linearGradient><linearGradient id="Áåçûìÿííûé_ãðàäèåíò_225-2" x1="282.6" y1="238.25" x2="282.6" y2="222.87" xlink:href="#Áåçûìÿííûé_ãðàäèåíò_225"/><linearGradient id="Áåçûìÿííûé_ãðàäèåíò_226" x1="253.37" y1="236.84" x2="276.65" y2="236.84" gradientUnits="userSpaceOnUse"><stop offset="0.02" stop-color="#fff"/><stop offset="1" stop-color="#e59db0"/></linearGradient><linearGradient id="Áåçûìÿííûé_ãðàäèåíò_225-3" x1="305.09" y1="266.76" x2="305.09" y2="245.55" xlink:href="#Áåçûìÿííûé_ãðàäèåíò_225"/><linearGradient id="Áåçûìÿííûé_ãðàäèåíò_225-4" x1="291.38" y1="262.67" x2="291.38" y2="243.4" xlink:href="#Áåçûìÿííûé_ãðàäèåíò_225"/><linearGradient id="Áåçûìÿííûé_ãðàäèåíò_225-5" x1="307.97" y1="237.94" x2="307.97" y2="222.83" xlink:href="#Áåçûìÿííûé_ãðàäèåíò_225"/><linearGradient id="Áåçûìÿííûé_ãðàäèåíò_177-5" x1="289.87" y1="276.48" x2="289.87" y2="192.36" xlink:href="#Áåçûìÿííûé_ãðàäèåíò_177"/><linearGradient id="Áåçûìÿííûé_ãðàäèåíò_75" x1="273.93" y1="268.95" x2="311.98" y2="268.95" gradientUnits="userSpaceOnUse"><stop offset="0" stop-color="#8b8be0"/><stop offset="1" stop-color="#a177b7"/></linearGradient><linearGradient id="Áåçûìÿííûé_ãðàäèåíò_236" x1="257.59" y1="400" x2="257.59" y2="329.76" gradientUnits="userSpaceOnUse"><stop offset="0.01" stop-color="#c2c0e1"/><stop offset="0.98" stop-color="#fff"/></linearGradient><linearGradient id="Áåçûìÿííûé_ãðàäèåíò_236-2" x1="293.85" x2="293.85" y2="282.94" xlink:href="#Áåçûìÿííûé_ãðàäèåíò_236"/><linearGradient id="Áåçûìÿííûé_ãðàäèåíò_236-3" x1="318.84" x2="318.84" y2="276.48" xlink:href="#Áåçûìÿííûé_ãðàäèåíò_236"/><linearGradient id="Áåçûìÿííûé_ãðàäèåíò_236-4" x1="325.4" x2="325.4" y2="302.64" xlink:href="#Áåçûìÿííûé_ãðàäèåíò_236"/><linearGradient id="Áåçûìÿííûé_ãðàäèåíò_237" x1="281.62" y1="334.47" x2="281.62" y2="266.76" gradientUnits="userSpaceOnUse"><stop offset="0.02" stop-color="#fff"/><stop offset="0.99" stop-color="#c2c0e1"/></linearGradient><linearGradient id="Áåçûìÿííûé_ãðàäèåíò_238" x1="290.46" y1="356.4" x2="290.46" y2="285.3" gradientTransform="translate(-36.91 20.74) rotate(-7.31)" xlink:href="#Áåçûìÿííûé_ãðàäèåíò_237"/><linearGradient id="Áåçûìÿííûé_ãðàäèåíò_238-2" x1="309.22" y1="343.02" x2="309.22" y2="274.32" xlink:href="#Áåçûìÿííûé_ãðàäèåíò_237"/><linearGradient id="Áåçûìÿííûé_ãðàäèåíò_239" x1="291.61" y1="107.83" x2="319.27" y2="107.83" xlink:href="#Áåçûìÿííûé_ãðàäèåíò_208"/><linearGradient id="Áåçûìÿííûé_ãðàäèåíò_240" x1="277.18" y1="122.04" x2="291.61" y2="122.04" xlink:href="#Áåçûìÿííûé_ãðàäèåíò_207"/><linearGradient id="Áåçûìÿííûé_ãðàäèåíò_123-2" x1="312.01" y1="189.2" x2="312.01" y2="182.73" xlink:href="#Áåçûìÿííûé_ãðàäèåíò_123"/><linearGradient id="Áåçûìÿííûé_ãðàäèåíò_242" x1="261.2" y1="400" x2="261.2" y2="285.49" xlink:href="#Áåçûìÿííûé_ãðàäèåíò_237"/><linearGradient id="Áåçûìÿííûé_ãðàäèåíò_148" x1="140.02" y1="243.73" x2="140.02" y2="156" gradientUnits="userSpaceOnUse"><stop offset="0" stop-color="#ffb595"/><stop offset="0.98" stop-color="#ffc2a9"/></linearGradient><linearGradient id="Áåçûìÿííûé_ãðàäèåíò_26-3" x1="145.54" y1="295.81" x2="145.54" y2="236.34" xlink:href="#Áåçûìÿííûé_ãðàäèåíò_26"/><linearGradient id="Áåçûìÿííûé_ãðàäèåíò_200-2" x1="141.34" y1="188.26" x2="141.34" y2="158.65" xlink:href="#Áåçûìÿííûé_ãðàäèåíò_200"/><linearGradient id="Áåçûìÿííûé_ãðàäèåíò_26-4" x1="175.12" y1="217.51" x2="175.12" y2="193.31" xlink:href="#Áåçûìÿííûé_ãðàäèåíò_26"/><linearGradient id="Áåçûìÿííûé_ãðàäèåíò_26-5" x1="109.93" y1="221.46" x2="109.93" y2="199.5" xlink:href="#Áåçûìÿííûé_ãðàäèåíò_26"/><linearGradient id="Áåçûìÿííûé_ãðàäèåíò_200-3" x1="175.07" y1="212.54" x2="175.07" y2="197.95" xlink:href="#Áåçûìÿííûé_ãðàäèåíò_200"/><linearGradient id="Áåçûìÿííûé_ãðàäèåíò_200-4" x1="110.04" y1="216.81" x2="110.04" y2="203.96" xlink:href="#Áåçûìÿííûé_ãðàäèåíò_200"/><linearGradient id="Áåçûìÿííûé_ãðàäèåíò_257-12" x1="143.96" y1="203.84" x2="133.97" y2="140.77" xlink:href="#Áåçûìÿííûé_ãðàäèåíò_257"/><linearGradient id="Áåçûìÿííûé_ãðàäèåíò_29" x1="150.67" y1="390.99" x2="150.67" y2="252.43" gradientUnits="userSpaceOnUse"><stop offset="0" stop-color="#2b2583"/><stop offset="1" stop-color="#482c97"/></linearGradient><linearGradient id="Áåçûìÿííûé_ãðàäèåíò_38" x1="63.38" y1="391.39" x2="63.38" y2="286.69" gradientUnits="userSpaceOnUse"><stop offset="0" stop-color="#26258a"/><stop offset="1" stop-color="#3c2c95"/></linearGradient><linearGradient id="Áåçûìÿííûé_ãðàäèåíò_198" x1="54.12" y1="303.17" x2="54.12" y2="198.67" gradientUnits="userSpaceOnUse"><stop offset="0.02" stop-color="#ffc2a0"/><stop offset="1" stop-color="#ffa195"/></linearGradient><linearGradient id="Áåçûìÿííûé_ãðàäèåíò_38-2" x1="234.25" y1="391.39" x2="234.25" y2="283.36" xlink:href="#Áåçûìÿííûé_ãðàäèåíò_38"/><linearGradient id="Áåçûìÿííûé_ãðàäèåíò_288" x1="143.8" y1="175.19" x2="146.65" y2="175.19" gradientUnits="userSpaceOnUse"><stop offset="0" stop-color="#8453b8"/><stop offset="0.23" stop-color="#7755ba"/><stop offset="0.7" stop-color="#6157bc"/><stop offset="1" stop-color="#5958bd"/></linearGradient><linearGradient id="Áåçûìÿííûé_ãðàäèåíò_200-5" x1="138.79" y1="205.68" x2="138.79" y2="178.23" xlink:href="#Áåçûìÿííûé_ãðàäèåíò_200"/><linearGradient id="Áåçûìÿííûé_ãðàäèåíò_183-3" x1="116.31" y1="193.64" x2="129.67" y2="193.64" xlink:href="#Áåçûìÿííûé_ãðàäèåíò_183"/><linearGradient id="Áåçûìÿííûé_ãðàäèåíò_183-4" x1="147.45" y1="189.76" x2="160.65" y2="189.76" xlink:href="#Áåçûìÿííûé_ãðàäèåíò_183"/><linearGradient id="Áåçûìÿííûé_ãðàäèåíò_183-5" x1="144.4" y1="206.04" x2="149.44" y2="206.04" xlink:href="#Áåçûìÿííûé_ãðàäèåíò_183"/><linearGradient id="Áåçûìÿííûé_ãðàäèåíò_200-6" x1="152.42" y1="214.89" x2="158.22" y2="214.89" xlink:href="#Áåçûìÿííûé_ãðàäèåíò_200"/><linearGradient id="Áåçûìÿííûé_ãðàäèåíò_200-7" x1="143.42" y1="229.2" x2="143.42" y2="224.35" xlink:href="#Áåçûìÿííûé_ãðàäèåíò_200"/><linearGradient id="Áåçûìÿííûé_ãðàäèåíò_44" x1="154.31" y1="195.37" x2="154.31" y2="190.27" gradientUnits="userSpaceOnUse"><stop offset="0.02" stop-color="#e0b3d1"/><stop offset="0.99" stop-color="#c2798b"/></linearGradient><linearGradient id="Áåçûìÿííûé_ãðàäèåíò_44-2" x1="123.62" y1="199.87" x2="123.62" y2="194.77" xlink:href="#Áåçûìÿííûé_ãðàäèåíò_44"/><linearGradient id="Áåçûìÿííûé_ãðàäèåíò_51" x1="153.91" y1="181.63" x2="153.91" y2="171.97" gradientUnits="userSpaceOnUse"><stop offset="0" stop-color="#b877b8"/><stop offset="0.23" stop-color="#9a6dba"/><stop offset="0.56" stop-color="#7762bb"/><stop offset="0.83" stop-color="#615bbd"/><stop offset="1" stop-color="#5958bd"/></linearGradient><linearGradient id="Áåçûìÿííûé_ãðàäèåíò_51-2" x1="121.31" y1="185.6" x2="121.31" y2="174.76" xlink:href="#Áåçûìÿííûé_ãðàäèåíò_51"/><linearGradient id="Áåçûìÿííûé_ãðàäèåíò_53" x1="162.1" y1="176.38" x2="175.7" y2="176.38" xlink:href="#Áåçûìÿííûé_ãðàäèåíò_208"/><linearGradient id="Áåçûìÿííûé_ãðàäèåíò_207-3" x1="105.48" y1="179.1" x2="118.37" y2="179.1" xlink:href="#Áåçûìÿííûé_ãðàäèåíò_207"/><linearGradient id="Áåçûìÿííûé_ãðàäèåíò_207-4" x1="104.68" y1="169.1" x2="119.55" y2="169.1" xlink:href="#Áåçûìÿííûé_ãðàäèåíò_207"/><linearGradient id="Áåçûìÿííûé_ãðàäèåíò_257-13" x1="145.89" y1="167.16" x2="143.27" y2="150.63" xlink:href="#Áåçûìÿííûé_ãðàäèåíò_257"/><linearGradient id="Áåçûìÿííûé_ãðàäèåíò_257-14" x1="175.71" y1="171.67" x2="173.95" y2="160.55" gradientTransform="matrix(0.98, 0.22, -0.22, 0.98, 38.03, -34.97)" xlink:href="#Áåçûìÿííûé_ãðàäèåíò_257"/><linearGradient id="Áåçûìÿííûé_ãðàäèåíò_58" x1="131.98" y1="210.05" x2="137.55" y2="210.05" gradientUnits="userSpaceOnUse"><stop offset="0.02" stop-color="#fff"/><stop offset="0.99" stop-color="#d172a6"/></linearGradient><linearGradient id="Áåçûìÿííûé_ãðàäèåíò_38-3" x1="121.46" y1="210.34" x2="121.46" y2="186.55" xlink:href="#Áåçûìÿííûé_ãðàäèåíò_38"/><linearGradient id="Áåçûìÿííûé_ãðàäèåíò_38-4" x1="156.32" y1="204.99" x2="156.32" y2="180.85" gradientTransform="translate(-32.83 34.02) rotate(-10.99)" xlink:href="#Áåçûìÿííûé_ãðàäèåíò_38"/><linearGradient id="Áåçûìÿííûé_ãðàäèåíò_38-5" x1="138.59" y1="191.43" x2="138.59" y2="187.41" xlink:href="#Áåçûìÿííûé_ãðàäèåíò_38"/><linearGradient id="Áåçûìÿííûé_ãðàäèåíò_38-6" x1="172.9" y1="163.89" x2="172.9" y2="154.15" xlink:href="#Áåçûìÿííûé_ãðàäèåíò_38"/><linearGradient id="Áåçûìÿííûé_ãðàäèåíò_257-15" x1="140.03" y1="170.09" x2="138.44" y2="160.06" xlink:href="#Áåçûìÿííûé_ãðàäèåíò_257"/><linearGradient id="Áåçûìÿííûé_ãðàäèåíò_200-8" x1="136.37" y1="279.68" x2="136.37" y2="239.64" xlink:href="#Áåçûìÿííûé_ãðàäèåíò_200"/><linearGradient id="Áåçûìÿííûé_ãðàäèåíò_67-2" x1="109.51" y1="391.12" x2="109.51" y2="255.43" xlink:href="#Áåçûìÿííûé_ãðàäèåíò_67"/><linearGradient id="Áåçûìÿííûé_ãðàäèåíò_67-3" x1="181.41" y1="390.99" x2="181.41" y2="252.43" xlink:href="#Áåçûìÿííûé_ãðàäèåíò_67"/><linearGradient id="Áåçûìÿííûé_ãðàäèåíò_82" x1="133.77" y1="327.2" x2="133.77" y2="272.38" gradientUnits="userSpaceOnUse"><stop offset="0.02" stop-color="#fff"/><stop offset="0.99" stop-color="#ea8cc1"/></linearGradient><linearGradient id="Áåçûìÿííûé_ãðàäèåíò_82-2" x1="158.52" y1="315.55" x2="158.52" y2="275.7" xlink:href="#Áåçûìÿííûé_ãðàäèåíò_82"/><linearGradient id="Áåçûìÿííûé_ãðàäèåíò_98" x1="45.27" y1="264.66" x2="45.27" y2="213.92" gradientUnits="userSpaceOnUse"><stop offset="0.01" stop-color="#ea9dc8"/><stop offset="0.98" stop-color="#ffdbd6"/></linearGradient><linearGradient id="Áåçûìÿííûé_ãðàäèåíò_89" x1="52.35" y1="222.92" x2="52.35" y2="208.93" gradientUnits="userSpaceOnUse"><stop offset="0" stop-color="#ffb595"/><stop offset="0.98" stop-color="#ffc290"/></linearGradient><linearGradient id="Áåçûìÿííûé_ãðàäèåíò_88" x1="42.5" y1="231.66" x2="42.5" y2="218.57" xlink:href="#Áåçûìÿííûé_ãðàäèåíò_89"/><linearGradient id="Áåçûìÿííûé_ãðàäèåíò_85" x1="36.44" y1="237.51" x2="36.44" y2="230.6" xlink:href="#Áåçûìÿííûé_ãðàäèåíò_89"/><linearGradient id="Áåçûìÿííûé_ãðàäèåíò_183-6" x1="56.74" y1="282.49" x2="56.74" y2="266.07" xlink:href="#Áåçûìÿííûé_ãðàäèåíò_183"/><linearGradient id="Áåçûìÿííûé_ãðàäèåíò_183-7" x1="51.89" y1="264.93" x2="51.89" y2="248.91" xlink:href="#Áåçûìÿííûé_ãðàäèåíò_183"/><linearGradient id="Áåçûìÿííûé_ãðàäèåíò_100" x1="62.93" y1="256.09" x2="62.93" y2="239.64" gradientUnits="userSpaceOnUse"><stop offset="0.01" stop-color="#ea9dc8"/><stop offset="0.98" stop-color="#fff"/></linearGradient><linearGradient id="Áåçûìÿííûé_ãðàäèåíò_38-7" x1="42.59" y1="298.39" x2="55.73" y2="298.39" xlink:href="#Áåçûìÿííûé_ãðàäèåíò_38"/><linearGradient id="Áåçûìÿííûé_ãðàäèåíò_207-5" x1="82.6" y1="314.02" x2="94.73" y2="314.02" xlink:href="#Áåçûìÿííûé_ãðàäèåíò_207"/><linearGradient id="Áåçûìÿííûé_ãðàäèåíò_101" x1="71.15" y1="361.25" x2="71.15" y2="327.2" xlink:href="#Áåçûìÿííûé_ãðàäèåíò_208"/><linearGradient id="Áåçûìÿííûé_ãðàäèåíò_207-6" x1="29.27" y1="340.88" x2="55.73" y2="340.88" xlink:href="#Áåçûìÿííûé_ãðàäèåíò_207"/><linearGradient id="Áåçûìÿííûé_ãðàäèåíò_101-2" x1="64.3" y1="376.97" x2="64.3" y2="313.31" xlink:href="#Áåçûìÿííûé_ãðàäèåíò_208"/><linearGradient id="Áåçûìÿííûé_ãðàäèåíò_114" x1="204.37" y1="303.23" x2="218.74" y2="303.23" xlink:href="#Áåçûìÿííûé_ãðàäèåíò_208"/><linearGradient id="Áåçûìÿííûé_ãðàäèåíò_207-7" x1="207.94" y1="340.12" x2="213.49" y2="340.12" xlink:href="#Áåçûìÿííûé_ãðàäèåíò_207"/><linearGradient id="Áåçûìÿííûé_ãðàäèåíò_207-8" x1="188.8" y1="361.17" x2="204.37" y2="361.17" xlink:href="#Áåçûìÿííûé_ãðàäèåíò_207"/><linearGradient id="Áåçûìÿííûé_ãðàäèåíò_207-9" x1="210.97" y1="360.79" x2="250.57" y2="360.79" xlink:href="#Áåçûìÿííûé_ãðàäèåíò_207"/><linearGradient id="Áåçûìÿííûé_ãðàäèåíò_207-10" x1="218.11" y1="361.55" x2="250.07" y2="361.55" xlink:href="#Áåçûìÿííûé_ãðàäèåíò_207"/><linearGradient id="Áåçûìÿííûé_ãðàäèåíò_207-11" x1="206.55" y1="361.55" x2="206.55" y2="309.52" xlink:href="#Áåçûìÿííûé_ãðàäèåíò_207"/><linearGradient id="Áåçûìÿííûé_ãðàäèåíò_26-6" x1="228.55" y1="378.49" x2="228.55" y2="365.23" xlink:href="#Áåçûìÿííûé_ãðàäèåíò_26"/><linearGradient id="Áåçûìÿííûé_ãðàäèåíò_108" x1="238.81" y1="391.7" x2="238.81" y2="361.65" gradientUnits="userSpaceOnUse"><stop offset="0" stop-color="#2b2583"/><stop offset="1" stop-color="#231868"/></linearGradient><linearGradient id="Áåçûìÿííûé_ãðàäèåíò_198-2" x1="209.35" y1="390.62" x2="209.35" y2="378.46" xlink:href="#Áåçûìÿííûé_ãðàäèåíò_198"/><linearGradient id="Áåçûìÿííûé_ãðàäèåíò_38-8" x1="211.17" y1="378.97" x2="228.72" y2="378.97" xlink:href="#Áåçûìÿííûé_ãðàäèåíò_38"/><linearGradient id="Áåçûìÿííûé_ãðàäèåíò_38-9" x1="226.9" y1="379.45" x2="239.33" y2="379.45" xlink:href="#Áåçûìÿííûé_ãðàäèåíò_38"/><linearGradient id="Áåçûìÿííûé_ãðàäèåíò_198-3" x1="233.27" y1="388.41" x2="233.27" y2="361.56" xlink:href="#Áåçûìÿííûé_ãðàäèåíò_198"/><linearGradient id="Áåçûìÿííûé_ãðàäèåíò_113" x1="142.02" y1="391.39" x2="142.02" y2="309.99" gradientUnits="userSpaceOnUse"><stop offset="0" stop-color="#c9b6e9"/><stop offset="1" stop-color="#bbabd1"/></linearGradient><linearGradient id="Áåçûìÿííûé_ãðàäèåíò_133-2" x1="142.02" y1="316.4" x2="142.02" y2="307.74" xlink:href="#Áåçûìÿííûé_ãðàäèåíò_133"/><linearGradient id="Áåçûìÿííûé_ãðàäèåíò_183-8" x1="240.58" y1="376.93" x2="240.58" y2="369.33" xlink:href="#Áåçûìÿííûé_ãðàäèåíò_183"/><linearGradient id="Áåçûìÿííûé_ãðàäèåíò_183-9" x1="247.2" y1="383.16" x2="247.2" y2="377.73" xlink:href="#Áåçûìÿííûé_ãðàäèåíò_183"/><linearGradient id="Áåçûìÿííûé_ãðàäèåíò_114-2" x1="184.21" y1="286.69" x2="184.21" y2="262.72" xlink:href="#Áåçûìÿííûé_ãðàäèåíò_208"/><linearGradient id="Áåçûìÿííûé_ãðàäèåíò_114-3" x1="111.64" y1="289.44" x2="111.64" y2="258.41" xlink:href="#Áåçûìÿííûé_ãðàäèåíò_208"/><linearGradient id="Áåçûìÿííûé_ãðàäèåíò_200-9" x1="46.79" y1="265.26" x2="46.79" y2="243.57" xlink:href="#Áåçûìÿííûé_ãðàäèåíò_200"/><linearGradient id="Áåçûìÿííûé_ãðàäèåíò_115" x1="147.02" y1="176.6" x2="158.27" y2="176.6" gradientUnits="userSpaceOnUse"><stop offset="0.01" stop-color="#f29dc8"/><stop offset="0.98" stop-color="#fff"/></linearGradient><linearGradient id="Áåçûìÿííûé_ãðàäèåíò_115-2" x1="149.11" y1="177.62" x2="161.59" y2="177.62" xlink:href="#Áåçûìÿííûé_ãðàäèåíò_115"/><linearGradient id="Áåçûìÿííûé_ãðàäèåíò_116" x1="121.36" y1="179.04" x2="128.93" y2="179.04" xlink:href="#Áåçûìÿííûé_ãðàäèåíò_200"/><linearGradient id="Áåçûìÿííûé_ãðàäèåíò_116-2" x1="117.15" y1="180.02" x2="127.74" y2="180.02" xlink:href="#Áåçûìÿííûé_ãðàäèåíò_200"/><linearGradient id="Áåçûìÿííûé_ãðàäèåíò_98-2" x1="50.2" y1="222.62" x2="50.2" y2="218.57" xlink:href="#Áåçûìÿííûé_ãðàäèåíò_98"/><linearGradient id="Áåçûìÿííûé_ãðàäèåíò_98-3" x1="38.88" y1="231.38" x2="38.88" y2="230.52" xlink:href="#Áåçûìÿííûé_ãðàäèåíò_98"/></defs><g class="cls-1"><g id="illustration"><path class="cls-2" d="M185.88,49.32c-77.33,18.83-90,77.7-101.71,131.13s-55.73,103.38,33,124.64,220.55-7.65,242.53-92.29S297.38,136.55,237.38,110,220.13,41,185.88,49.32Z" transform="translate(0 -30.89)"/><path class="cls-2" d="M216.76,78.59c-9.75,5.19-15.19-23.92-3.84-35.33S244.13,26,252.07,36s-10.32,25.78-20.54,31.5S220.4,76.65,216.76,78.59Z" transform="translate(0 -30.89)"/><path class="cls-2" d="M99.53,104.3c.28-20.31-45.58-2-59.2,35.57S39.14,204.79,57.66,206s21.09-19.83,26.73-49.12S99.37,115.71,99.53,104.3Z" transform="translate(0 -30.89)"/><path class="cls-2" d="M326.25,325.93c7.33-13.73,19-18.2,27.12-16.29s.19,27.89-11.23,28.9S321.78,334.29,326.25,325.93Z" transform="translate(0 -30.89)"/><path class="cls-3" d="M324,162.68s-3.19,23.75,2.56,62.4l-5.34-3.79-11-5.55s-3.3-5.53-3.55-21.7c0,0-1.25,1.49,3,28.83,0,0-40.29,3-48.12,5.75s-11,5.42-11,5.42-9-19.31-6.44-25.38,10.23-1.89,17.93-11.49,8.28-66.57,16.61-75.85,42.87-6.61,42.87-6.61l3,3.38S324.83,145.5,324,162.68Z" transform="translate(0 -30.89)"/><path class="cls-4" d="M323.61,165.14a46.81,46.81,0,0,0-4.88,4.68c-1.73,2.09-2.57,29.53-2.57,29.53l-1.32-1.47L317,171.24s-7,4.55-8.43,7.68-2.89,13.54-2.89,13.54l-1.12-1,2.87-15.35-3.75,14.4A22.65,22.65,0,0,1,300,185c-1.59-3.39-4.09-30.23-4.09-30.23l28,8Z" transform="translate(0 -30.89)"/><path d="M329.22,291.27c5.5,2.09,16.12-45.79,10.15-55.2s-18.74,15.54-19,30.7A36.42,36.42,0,0,0,329.22,291.27Z" transform="translate(0 -30.89)"/><path d="M316.09,198.81s12.58,11.62,23.28,37.26c0,0-33.07,24.89-10.15,55.2,0,0-12.64-11.92-17.78-33.62S316.09,198.81,316.09,198.81Z" transform="translate(0 -30.89)"/><path class="cls-5" d="M339.37,190.47A187.28,187.28,0,0,1,381.14,189l1.51,1.51-41.3.95Z" transform="translate(0 -30.89)"/><path d="M285.26,181.47h-1.82a7.73,7.73,0,0,1-2.15,4.36c-1.9,1.8-12.79,4.74-23,17.24,0,0-17.33,51.45-6.34,86.12,0,0,3.88-38.37,18.94-49.36l1.49,1.24s1.85,15.13-.34,20.16l1.79,1s8.05-3.6,13.17-2.08,10.52,6.54,19.52,8.62a211.39,211.39,0,0,1,9.34-19.74c4.3-7.45,7.14-13.75,7.14-13.75s2.3-10.62-1.8-19.66a65.28,65.28,0,0,1-5.08-16.86s-12.54-5.15-14.82-12.38l-1.35-.5Z" transform="translate(0 -30.89)"/><path class="cls-6" d="M314.94,225.18a15.62,15.62,0,0,1,3.9,8.86c.58,6.18-3,15-3,15l3-5.44,8.77-25.94-2.78-4Z" transform="translate(0 -30.89)"/><path class="cls-7" d="M323.16,222.87c1.42-1,.95-9.38,2.75-13.26a48.54,48.54,0,0,1,5.52-8.4,3,3,0,0,0-3.22-.69c-2.15.63-5.81,1.76-5.49,8.4a46.38,46.38,0,0,1-2.06,4.54S323.29,218.26,323.16,222.87Z" transform="translate(0 -30.89)"/><path class="cls-8" d="M323,102.75c7.29,6.58,10.29,11.68,10.8,16.48s-5.37,19.33-5.4,22.86,3,6.57,1.61,11.75-12.66,16.93-18.44,16.93c-2.47,0-13.68-7.2-19.36-13.93s-5.87-21.5-5.87-21.5-6.92-24.54,6.63-32S319.49,99.6,323,102.75Z" transform="translate(0 -30.89)"/><path class="cls-9" d="M326.1,126s1.67-10.47-2.15-12.18-5.22-1-5.22-1-3.45,10.86-10.17,12.87-14.71-.46-14.71-.46l12.2-11.37,16.11-11,6.53,5.59,1.64,13.71Z" transform="translate(0 -30.89)"/><path class="cls-10" d="M307.39,266.68s2.51,2.05,4.59,7.64h-3.13S325.81,350,347.41,400h-92s-6.1-76.64-3.58-97.86S272,261.23,272,261.23s10.28-3.35,16.06-.65,18.42,8.24,18.42,8.24Z" transform="translate(0 -30.89)"/><path class="cls-11" d="M286.5,186.2a16.23,16.23,0,0,1-1.24-4.73l.07-1.61-1.39.7a8.53,8.53,0,0,1-2.66,5.27c-2.52,2.43-11.56,4.14-23,17.24l-2,6.59a17,17,0,0,1,10.54-3.27s6.63,11.87,14.09,9.09S286.5,186.2,286.5,186.2Zm-6.88,24.71C273.14,211.88,269,205,269,205s6.79,1.93,11.34-.41,5.16-12.16,5.16-12.16S286.11,209.93,279.62,210.91Z" transform="translate(0 -30.89)"/><path d="M251.92,289.19c.61,8.89,11.87.19,19.45-15.47s5.43-31.84,0-35.25S250.65,270.81,251.92,289.19Z" transform="translate(0 -30.89)"/><path class="cls-12" d="M299.14,163.41s-2.13,14.18,2,25.3c0,0,1.14,7.7-4.55,7.57s-11.37-12.5-11.37-12.5L289,151S291.53,156.55,299.14,163.41Z" transform="translate(0 -30.89)"/><path class="cls-13" d="M326.51,216.62l-17.34-29.75s0-4.73,4.42-4L329.34,213s1.91,6.12,1.41,6.8S326.51,216.62,326.51,216.62Z" transform="translate(0 -30.89)"/><path class="cls-14" d="M324,102.56c3.44,4.12,13.14,7,15,11.49s-6.1,11-6.1,11l.18-1s6.22-4.58,4.16-9.13c0,0-3.07,9.57-10.36,10.71a12.38,12.38,0,0,0,3.22-11.65A13.44,13.44,0,0,1,327,125.58l-.85.43s5.77-9.94-3.36-19.28c0,0,.42,23.49-20.61,17l-2.47-1.13S317,119,320,105.78c0,0-7.35,13.2-21.93,17l-3,.89s-8.74,23.54,4.42,27.24c0,0-9.37,1.71-9.94-5.49s3.74-21.12,3.74-21.12-3.7,6.86-4,12.43c0,0-1.58-4.59-3.94-6.31a13.27,13.27,0,0,0-5.45-2.39s-5.18,28.1-1,58.6c0,0-11.75,6.64-15.53,11.37s-6.45,4.74-14.4,8.34,3.85,25.2,3.85,25.2-5.94,7-9.73,8.72c0,0-8.15-1.12-11.37-7.86,0,0,5.75,5.64,13.46,4.89,0,0,1.64-3.83,1-4.89s-15.92-10.65-10.74-24.67c0,0,21.73-5.05,25.26-11.49s7.39-69.1,15.92-87.1,18-18.7,22.61-19.26S317.41,94.6,324,102.56Z" transform="translate(0 -30.89)"/><path class="cls-15" d="M287.05,132.69s-4-7.12-10.42-3.68c-1.34.72-1.76,9.81,1.24,14.24s6.91,5.37,8.72,5.42,2.32-2.41,2.32-2.41S291.18,136,287.05,132.69Z" transform="translate(0 -30.89)"/><path class="cls-16" d="M284.23,134.86s-3.8-2.42-5.67-2.62-.91,7.14-.91,7.14-.54-5.31,1-5.75,4.17,2.18,4.17,2.18a5.88,5.88,0,0,0-2.72,5.31c.1,3.79,4.13,5.29,4.13,5.29a2.78,2.78,0,0,0,1.05-1.54c.32-1.07-1.6-3.44-1.68-4.72s1.37-1.47,1.37-1.47l1.56,1S285.92,136.35,284.23,134.86Z" transform="translate(0 -30.89)"/><path class="cls-17" d="M285.76,137.21s-1-1.73-2.67-1.26-3.79,3.93-2.94,6,3.32,3,4.31,2.2-1-2.9-.75-4.37,2.36-.61,2.36-.61Z" transform="translate(0 -30.89)"/><path class="cls-18" d="M293.85,122.14s-5.44,5.2-10.57,6.6c0,0-.29,25.86.22,47.33s-6.83,25.39-20.21,22l-3.85,3.59A37.33,37.33,0,0,0,275.61,203c8.14-1.39,8.93-19.83,8.93-19.83s1.34,24-4.2,27.41-13.17-7.91-13.17-7.91l-1.85-.24s6.68,10.15,15.3,9.2,5-20.53,5.72-32.13,1.87-37.14,2.88-42.7S293.85,122.14,293.85,122.14Z" transform="translate(0 -30.89)"/><path class="cls-19" d="M322.48,274.47s20-5.55,35.54-43.07v-9.85s-18.91,17.62-32.85,32.78C325.17,254.33,320.09,262.13,322.48,274.47Z" transform="translate(0 -30.89)"/><path class="cls-20" d="M315.77,260l-1.52-1.2s15.39-52.55,25.12-68.34l2,.95Z" transform="translate(0 -30.89)"/><path class="cls-21" d="M315.77,260c-.95-2.59,23.3-67.45,25.58-68.59s40-2.46,41.3-.95S350.16,258,348.36,258.78,316.33,261.55,315.77,260Z" transform="translate(0 -30.89)"/><path class="cls-6" d="M365.74,208.28a3.94,3.94,0,0,0-.42,4.48l4.18-.34s-5.65,1.49-7.83,5.28a14.35,14.35,0,0,0-1.66,8h.85l2,6.64,13.88-28S369,205.58,365.74,208.28Z" transform="translate(0 -30.89)"/><path class="cls-22" d="M377.75,202.45a34.25,34.25,0,0,1,.83,4.7c0,1.23-3.06,2.56-3.06,2.56s1.44,2.65,0,4.07a7.09,7.09,0,0,1-2.64,6.2c-3.19,2.61-7.33,3.52-11.49,3.71,0,0-.08-3.42,2.6-4.23l-1.45,0a6,6,0,0,1,3.83-5.45c4-1.85,8-4.26,8-4.26a35.94,35.94,0,0,1-8.72,1.61,3.52,3.52,0,0,1,1.36-3.94c2.17-1.37,9.7-3,9.7-3Z" transform="translate(0 -30.89)"/><path class="cls-23" d="M369.16,222.43a2.22,2.22,0,0,1,.75,2.92c-1,1.82-7.1,2.59-7.1,2.59s-1.11-2.59,1.11-3.89A15.55,15.55,0,0,1,369.16,222.43Z" transform="translate(0 -30.89)"/><path class="cls-24" d="M315.14,151.38s-2.34,2.08-.76,4a14.37,14.37,0,0,1,4.89.66,8.79,8.79,0,0,0,3.32-.61l2.13-1.53a4.67,4.67,0,0,0-2.82-.21,46.55,46.55,0,0,1-4.68,1.25,8.43,8.43,0,0,1-2.71-.1S313.21,153.75,315.14,151.38Z" transform="translate(0 -30.89)"/><path class="cls-25" d="M314.38,155.42s-2.15-2.64.76-4C315.14,151.38,313.18,152.58,314.38,155.42Z" transform="translate(0 -30.89)"/><path class="cls-26" d="M315.25,155.42a1.79,1.79,0,0,1,1.53-.66,5.72,5.72,0,0,1,2,1.15A15.13,15.13,0,0,0,315.25,155.42Z" transform="translate(0 -30.89)"/><path class="cls-27" d="M325.05,152.58a52.57,52.57,0,0,0-3.26-4.88c-1.85-2.42-.24-7.2-.24-7.2a3.87,3.87,0,0,0-4.56,0s-1.65,5.07-4.54,7.63a18,18,0,0,1-10.8-2.85c-5.3-3.45-5-8.24-5-8.24s1.18-4.16,4-5.47,16.72-1.64,16.72-1.64,4.05,4.52,8.11,3.11c0,0,4.16-2.25,5.43-1.16,0,0-3.13,8.72-2.55,11.08s2.07,6.22,1.91,8.72C330.33,151.68,328.84,153.86,325.05,152.58Z" transform="translate(0 -30.89)"/><path class="cls-17" d="M313.83,154.44c.33.66.76,1.38,4.22.39s5.16-1.57,6.67-.89c0,0-4,5.43-7.37,4.77S313.83,154.44,313.83,154.44Z" transform="translate(0 -30.89)"/><path class="cls-28" d="M321.52,146a10.72,10.72,0,0,1,6.63-1.83s-2.48,4.29-4.47,4.55S321.52,146,321.52,146Z" transform="translate(0 -30.89)"/><path class="cls-28" d="M299,141.45a18.18,18.18,0,0,1,12.63,2.66s-1.75,2-3.55,2.29S299,141.45,299,141.45Z" transform="translate(0 -30.89)"/><path d="M321.52,146s3.31-1.91,6.26-1.24L331,142.6l-2.55.36S325.53,142.13,321.52,146Z" transform="translate(0 -30.89)"/><path d="M311.6,144.11S308,141.27,299,141.45l-1.63-3.32,3.15,2S310.34,140.45,311.6,144.11Z" transform="translate(0 -30.89)"/><path class="cls-29" d="M303.24,144.27a5.85,5.85,0,0,1,5.42-1.67l2.94,1.51a6.25,6.25,0,0,1-3.55,2.29C306,146.64,303.24,144.27,303.24,144.27Z" transform="translate(0 -30.89)"/><path class="cls-30" d="M325.31,144.66a5.62,5.62,0,0,0-2.05,4s.39.21,1.83-.71a10.68,10.68,0,0,0,2.69-3.25A5.23,5.23,0,0,0,325.31,144.66Z" transform="translate(0 -30.89)"/><path class="cls-17" d="M321,146s2.94-6.94,4.77-7.58,2.34,4.54,2.34,4.54-.57-4.81-2.15-4.37-4.48,7.41-4.48,7.41Z" transform="translate(0 -30.89)"/><path class="cls-17" d="M311.6,144.11s.25-7-2.53-7.83-8.58,3.86-8.58,3.86,5.71-4.2,8.08-3.51,2.32,6.39,2.32,6.39Z" transform="translate(0 -30.89)"/><path class="cls-31" d="M325.05,133.88s3.13-4.67,7.23-6.2a3.86,3.86,0,0,1-1.48,5s-.16-.84-1.15-.55a54.5,54.5,0,0,0-4.93,2.36s.24-3.22,2.47-4.26Z" transform="translate(0 -30.89)"/><path class="cls-32" d="M317.19,130.84s1.09-3.41,0-4.93v3.51s-.14-2.8-1.42-3.51-9.19-.23-15.3,5.66C300.47,131.57,310.27,129.75,317.19,130.84Z" transform="translate(0 -30.89)"/><path class="cls-33" d="M322.16,159.87l-4,2.75h0l-.3.21s-1.53,2-3,2.3c-1.13.19-3.54-3-5.17-5.87a19.7,19.7,0,0,1-1.31-2.69,10.25,10.25,0,0,0,3.59,3.39,18.66,18.66,0,0,0,6.65,1.48A12.6,12.6,0,0,0,322.16,159.87Z" transform="translate(0 -30.89)"/><path class="cls-34" d="M322.16,159.87l-4,2.75h0a8.51,8.51,0,0,1-2,0,20.92,20.92,0,0,1-6.49-3.36,19.7,19.7,0,0,1-1.31-2.69,10.25,10.25,0,0,0,3.59,3.39,18.66,18.66,0,0,0,6.65,1.48A12.6,12.6,0,0,0,322.16,159.87Z" transform="translate(0 -30.89)"/><path class="cls-17" d="M310.21,155.72s-2.58.49-3.29,2.41Z" transform="translate(0 -30.89)"/><path class="cls-35" d="M277.18,128.74s14.65-6.46,26.06-12.92c0,0-7.93,9.23-20,12.92Z" transform="translate(0 -30.89)"/><path class="cls-36" d="M278.7,128.07s2.95-20.33,11.49-28.54,26.15,2,26.15,2-17.43-9.48-26-1.14S278.7,128.07,278.7,128.07Z" transform="translate(0 -30.89)"/><path class="cls-37" d="M277.18,128.74s2.24-23.5,13.24-31.47a23.75,23.75,0,0,1,21.82-3.56s-14.31-5.65-23.69,3.92C277.4,109,277.18,128.74,277.18,128.74Z" transform="translate(0 -30.89)"/><path class="cls-38" d="M275.61,133.73a16.17,16.17,0,0,0,2.31,10.09s-13,10.91-7.56,48.42l-5.41,4S267,155.55,275.61,133.73Z" transform="translate(0 -30.89)"/><path class="cls-39" d="M326.1,126a14,14,0,0,0,4.07-12.08c-1.11-7.56-7.43-7.2-7.43-7.2S330.55,112.69,326.1,126Z" transform="translate(0 -30.89)"/><path class="cls-39" d="M322.16,105.46S312.69,93,304,90.53C304,90.53,322.83,96.21,322.16,105.46Z" transform="translate(0 -30.89)"/><path class="cls-40" d="M285.26,201.73s9.24,13,16.56,19.31a34.48,34.48,0,0,0,16.43,7.45Z" transform="translate(0 -30.89)"/><path class="cls-41" d="M248.89,206.39s-6.75,1-7.89,9.35,6.46,15.75,6.46,15.75l5.28.1S241,208.79,248.89,206.39Z" transform="translate(0 -30.89)"/><path class="cls-42" d="M300.32,186.08s1.09,8.15-4.39,10.12c0,0,4.11,1.38,5.34-2.63a11.6,11.6,0,0,0,0-7.14Z" transform="translate(0 -30.89)"/><path class="cls-43" d="M276.65,239.33s1.6-9.89-3.13-25.87c0,0,5.42,7.1,5.74,24.79Z" transform="translate(0 -30.89)"/><path class="cls-44" d="M279.86,238.25a27.53,27.53,0,0,0,6.08-15.38s-3.34,10.22-6.68,15.38Z" transform="translate(0 -30.89)"/><path class="cls-45" d="M276.65,239.33s-3.58-6.41-8.63-7.24-14.65,9.54-14.65,9.54,8.68-7.34,14.08-7.16,6.07,6.14,6.07,6.14Z" transform="translate(0 -30.89)"/><path class="cls-46" d="M295.93,264.14s11.82-16.42,18.32-18.59l-12.43,21.21Z" transform="translate(0 -30.89)"/><path class="cls-47" d="M293.27,262.67s.84-11-3-19.27c0,0-2.12,10.27.5,18.4Z" transform="translate(0 -30.89)"/><polygon class="cls-48" points="302.59 236.22 313.35 222.83 306.49 237.94 302.59 236.22"/><path class="cls-49" d="M267.74,242.86s28.46-10.65,34.86-17.05c1.14-1.14-1.37-11.12-1.56-13.83s.27-5.59.83-6,3.27-1.4,3.72-1.66,1.21-1.53,1.84-1.84,2.72-.6,3.1-1.11c.09-.12.44-.66.93-1.4,1.49-2.26,4.3-6.46,5.25-6.94,1.27-.63,3.26-1.21,4.27.05s4.81,9.68,4.81,9.68a4.28,4.28,0,0,1-4.35-.13,11.33,11.33,0,0,1-3.19-4s-2.2,1.72-2.39,2.66c0,0,4.8,2.47,7,4.87.68,2-2.78,5.87-3,6.25s4.87,4.23,3.29,10.48a83.21,83.21,0,0,0-13,6.32c-6.12,3.79-34,38.2-56.27,47.29C253.94,276.48,257.61,252.63,267.74,242.86Z" transform="translate(0 -30.89)"/><path class="cls-6" d="M265,270.39s-9.15-7.92,2.79-27.53c0,0-9.38,7.34-13.8,33.62A81.49,81.49,0,0,0,265,270.39Z" transform="translate(0 -30.89)"/><path class="cls-50" d="M306.05,213.46l.87-2.46,5.34,2.46-.9,4.14s.3,1.39,3.51-.13a5.09,5.09,0,0,0,2.95-2.4l2.05-2.68h0l1.57,2.1-7.88,4.5h-2.78Z" transform="translate(0 -30.89)"/><path class="cls-51" d="M325.79,202.79s-1.68-4.69-3.39-4.36,0,4.12,0,4.12A3.28,3.28,0,0,0,325.79,202.79Z" transform="translate(0 -30.89)"/><path class="cls-52" d="M318.25,198.61s-1.59-3.72-1.54-5.55c0,0-1.34.89-6.18,8.34,0,0,2-1.93,5.33-.13C315.86,201.27,317.42,199.44,318.25,198.61Z" transform="translate(0 -30.89)"/><path class="cls-42" d="M273.52,240.61a6.8,6.8,0,0,0-3.48-5.5s2.47-.22,6.61,4.22l2.26-7.28.35,6.2Z" transform="translate(0 -30.89)"/><path class="cls-53" d="M312,274.32a61.15,61.15,0,0,1-10.71-3.13c-7.29-2.65-12-6.92-17.43-7.39a44.68,44.68,0,0,0-8.9,0l-1,3.55a24.41,24.41,0,0,1,17.45.9,134,134,0,0,0,17.47,6.07Z" transform="translate(0 -30.89)"/><path class="cls-42" d="M251.31,325s18.24-48.31,25.34-58.39l-.37-2.93a5.9,5.9,0,0,1,3.35-4h-1l-3.5,3s-7.39,27.78-21.21,30.08C253.89,292.75,250.26,297.11,251.31,325Z" transform="translate(0 -30.89)"/><path class="cls-54" d="M251.12,329.76s4.62,47.85,12.94,70.24h-8.64S251.08,339.72,251.12,329.76Z" transform="translate(0 -30.89)"/><path class="cls-55" d="M282.6,282.94l15,117.06h7.45S293.32,341.8,282.6,282.94Z" transform="translate(0 -30.89)"/><path class="cls-56" d="M314.39,400s-9.76-76.23-7-123.52c0,0,2.13,55.28,23.33,123.52Z" transform="translate(0 -30.89)"/><path class="cls-57" d="M313.74,302.64s10.91,64.8,21.55,97.36h1.76S323.34,351.32,313.74,302.64Z" transform="translate(0 -30.89)"/><path class="cls-58" d="M285.52,266.76a230.49,230.49,0,0,0-7.6,67.71S279.52,293.6,285.52,266.76Z" transform="translate(0 -30.89)"/><path class="cls-59" d="M287.65,266.76s-4.55,19,11.22,70.25C298.87,337,287.48,290.41,287.65,266.76Z" transform="translate(0 -30.89)"/><path class="cls-60" d="M337.05,231.47s8.35-14,22.17-15.56C359.22,215.91,357.9,225.13,337.05,231.47Z" transform="translate(0 -30.89)"/><path class="cls-17" d="M364,219.46s6.84-1.22,11.55-5.44l-.08,1.53S373,217.81,364,219.46Z" transform="translate(0 -30.89)"/><path class="cls-51" d="M366.37,208s4.66-1.3,5.29.52-4.9,3-5.29,2.83C365.78,211.08,365,210.65,366.37,208Z" transform="translate(0 -30.89)"/><path class="cls-51" d="M363.8,216.74s-.92.79-.4,2.7c0,0,4.48-.82,4.83-2.7S363.8,216.74,363.8,216.74Z" transform="translate(0 -30.89)"/><path class="cls-51" d="M362.68,220.63s-1.09.74-.59,2.78c0,0,5-.2,4.9-2.1S362.68,220.63,362.68,220.63Z" transform="translate(0 -30.89)"/><path class="cls-51" d="M363.44,225a2.43,2.43,0,0,0-.39,2.88s3.61-.66,3.32-2.31S363.44,225,363.44,225Z" transform="translate(0 -30.89)"/><path class="cls-17" d="M374.41,209.71l2.82-.94-1.71.94-6.66,3S373.37,210.37,374.41,209.71Z" transform="translate(0 -30.89)"/><polygon class="cls-61" points="359.96 159.14 323.26 205.44 316.02 227.28 373.04 159.04 359.96 159.14"/><path class="cls-62" d="M282.6,256.07a4.09,4.09,0,0,0,3.34,3.6,44.12,44.12,0,0,0,4.43.91l2.9,2.09s10.34,3.67,14.52,3.27l-.4.74a11.93,11.93,0,0,1,2.55,3.31c.78,1.72-.09,0-.09,0l-3.36-1.17s-15.84-7.16-18.95-8.47-8.94-.68-8.94-.68Z" transform="translate(0 -30.89)"/><path class="cls-62" d="M311.44,257.65l7.4-14-4.59,15.17,1.52,1.2s2.4,1.5,25.9-.48l-3.32,3.88-3.14,2.9s-9.59,6.13-13.35.45l-.5-1.26-8-1.13Z" transform="translate(0 -30.89)"/><path class="cls-62" d="M322.48,274.47s1,7.14,4.07,9,13.15-21.69,13.15-21.69S329.19,272.26,322.48,274.47Z" transform="translate(0 -30.89)"/><path d="M253.94,276.48s-1.49,7.78-.57,10.91c7.47,2.87,19-16.64,19-16.64l2.74-8.08S264,272.49,253.94,276.48Z" transform="translate(0 -30.89)"/><path class="cls-63" d="M308.85,274.32s-4.83,36.51,0,68.7c0,0-2.09-39.5,2.89-56.52Z" transform="translate(0 -30.89)"/><path class="cls-64" d="M319.27,102s-9.06-3-27.66,13.33C291.61,115.35,309.91,94.28,319.27,102Z" transform="translate(0 -30.89)"/><path class="cls-65" d="M278.7,128.07l12.91-12.72a53.92,53.92,0,0,0-14.43,13.39Z" transform="translate(0 -30.89)"/><path class="cls-42" d="M277.4,173.62s-6,13.45-12.45,22.67c0,0,7.71-5.63,13.87-9.61Z" transform="translate(0 -30.89)"/><path class="cls-66" d="M310.53,189.2s1.17-3.55,4.31-3.91l-1.25-2.4s-4.2-1.38-4.42,4Z" transform="translate(0 -30.89)"/><path class="cls-50" d="M306.92,211l5.87,2a7,7,0,0,0,3.64-1.61l-6.49-3.55,7,3.14a5.17,5.17,0,0,0,3.05-2.24,62.62,62.62,0,0,0-5.37-4.41s3.69,1.85,5.37,3.93c0,0,2.48-.31,2.84-2.14.65,1.29-1.37,4.16-3,6.25,0,0-1.87,4.7-5.48,5.65s-3.86-1.28-3.86-1.28Z" transform="translate(0 -30.89)"/><path class="cls-50" d="M323.16,222.87l-8.22,2.31L309.17,230s2-1.26,5.22-3.12A73.93,73.93,0,0,1,323.16,222.87Z" transform="translate(0 -30.89)"/><path class="cls-50" d="M320.66,213.46a33.75,33.75,0,0,1,3.59,5.15s.3-3.59.58-4.87l-2.4-4.11Z" transform="translate(0 -30.89)"/><path class="cls-67" d="M264.06,285.49s.74,54.6,7.38,114.51h-16s-8.9-93.89-1.53-107.25C253.89,292.75,261.07,289.37,264.06,285.49Z" transform="translate(0 -30.89)"/><path class="cls-17" d="M321.52,146s.19,3.6,2.43,3.6,3.83-4.84,3.83-4.84-2,3.58-4.1,4S321.52,146,321.52,146Z" transform="translate(0 -30.89)"/><path class="cls-17" d="M299,141.45s5.26,4.74,7.95,5.68,4.1-2.42,4.1-2.42a5.32,5.32,0,0,1-3.1,1.7C305.29,146.07,299,141.45,299,141.45Z" transform="translate(0 -30.89)"/><path class="cls-68" d="M310.78,219a26.09,26.09,0,0,1,2.69,7.41l-4.3,3.55a70.2,70.2,0,0,1,14.22-7.08,12.62,12.62,0,0,0,.86-4.26,27.86,27.86,0,0,1,.58-4.87l-2.4-4.11-1.77,3.83-.79-1.07s-1.62,3.43-4.13,5c-1.86,1.14-4.66.39-4.66.39Z" transform="translate(0 -30.89)"/><path class="cls-69" d="M307.42,118.7c-2.43,1.41,1.91-2.92-11.49-4.35s-13.07-12.87-12.18-14S283,99,283,99a15.66,15.66,0,0,1,3.48-3.87s-2.21,2.89-2.1,9.22,10.68,10,19.63,10,10.8-1.81,10.8-1.81S309.94,117.23,307.42,118.7Z" transform="translate(0 -30.89)"/><path class="cls-69" d="M309.17,118.84s6.11-.9,7.83,3.2a15.51,15.51,0,0,0,4.12-6.22s-.78,1.23-3.45,1.33-2-3.32-2-3.32A26.15,26.15,0,0,1,309.17,118.84Z" transform="translate(0 -30.89)"/><path class="cls-69" d="M329.35,121.51a21.68,21.68,0,0,1,3.32-1.58,1.3,1.3,0,0,1,1.55.79,33.12,33.12,0,0,0,2.5-4.35s.33,1.16-2.26,1.57-4-2.12-4-2.12S330.54,119.55,329.35,121.51Z" transform="translate(0 -30.89)"/><path class="cls-70" d="M42.21,312.93l2.4,28.42s-7.39,6.06-13.07,6.06C31.54,347.41,29.77,335.67,42.21,312.93Z" transform="translate(0 -30.89)"/><path class="cls-71" d="M265.9,391.39a104.58,104.58,0,0,1-27.6-1.5,100.58,100.58,0,0,1-24.3-8.56l-1.9-11.94s13.92-15.87,30.32-8.6S265.9,391.39,265.9,391.39Z" transform="translate(0 -30.89)"/><path class="cls-72" d="M134.8,156.43c-17.32,2.74-25.77,17-26.14,24.64s5.55,36.93,7.57,44.8,16.8,16.07,22,17.34a22.33,22.33,0,0,0,14.66-1.91c4.29-2,14.52-10.77,16.67-18.52s2.78-43.74,0-52.71S149,154.17,134.8,156.43Z" transform="translate(0 -30.89)"/><path class="cls-73" d="M129,238.93l.88,33.45s3.81,22.65,15.66,23.4c14.84,1,16.55-25.31,16.55-25.31l-2.33-34.13s-8.61,7.39-16.47,7.38S129,238.93,129,238.93Z" transform="translate(0 -30.89)"/><path class="cls-74" d="M111,181.07s3.46-15.09,23.74-16.26,28.17,5.57,30.85,10.38,6.06,13.07,6.06,13.07l-.94-23-12.77-6s-26.78-2.45-36.51,2.32S110.78,173,111,181.07Z" transform="translate(0 -30.89)"/><path class="cls-75" d="M171.39,196.08a9.52,9.52,0,0,1,6.8-2.77s2.84,2.34,1,8.3c-1.58,5.26-5.58,12.13-6.34,13.84a3.79,3.79,0,0,1-2.49,2.06S171.45,203.24,171.39,196.08Z" transform="translate(0 -30.89)"/><path class="cls-76" d="M111,200.59a5.27,5.27,0,0,0-6.36,0,50.47,50.47,0,0,0,3.18,10.69c2.5,6.06,3.82,10.22,7.33,10.18Z" transform="translate(0 -30.89)"/><path class="cls-77" d="M171.4,202.75s4.12-4.35,6.27-4.78.61,5.71-.71,8.91-1.47,3.5-1.47,3.5,2.66-7.77,1.85-9.52-2.17-1-2.22-.29,1.41,4.5-.62,8.24-2.28,4.69-2.84,2.75,1.18-5.11,1.23-7S171.4,202.75,171.4,202.75Z" transform="translate(0 -30.89)"/><path class="cls-78" d="M112.12,206s-3.46-2.64-4.78-1.94.31,7.17,3.27,12.41c0,0-3.06-7.2-2-8.91s3.52,1.26,2.38,1.39c-3.43.4-1.62,5.31,1.1,7.27s-.43-1.52-.94-4.61,1.33-3,1.33-3Z" transform="translate(0 -30.89)"/><path class="cls-79" d="M123.36,158.25s6.45-16.45,21-19.13c0,0-5.38,1.72-11.34,7.55-2,2-6.59,9.33-6.59,9.33s15.25-16.25,25.39-15.4,10.42,15.64,15.06,18.1a12.83,12.83,0,0,1,5.9,7.58s4.05,4.92,3.79,10.1-5.21,23.12-5.21,23.12,1.3-16.67-3.25-23.37c0,0-1.52-9.19-8.05-12.88a109.89,109.89,0,0,1-22.45-.65c-13.65-1.61-18.1,1.59-18.1,1.59s-8.43,6.73-8.34,15.07c0,0-3.18,6.2.13,22.84,0,0-7.61-17-7.48-23.95s7.26-13.77,7.26-13.77-5.91,3.18-9.29,7.39c0,0-4.68-8.68,17.34-10.8A6.74,6.74,0,0,0,123.36,158.25Z" transform="translate(0 -30.89)"/><path d="M129.56,260.51s-11,12.44-19.63,17.94a118,118,0,0,1-15.1,8.24s-2,68.49,7.13,104.3h90.25s7.58-85.47,2.85-107.63c0,0-23.8-10.33-33.69-23.45l.43,11.9s-3.91,18.87-16.26,19.8c-11.4.86-15.74-22.06-15.74-22.06Z" transform="translate(0 -30.89)"/><path class="cls-80" d="M129.46,256.38l-4.32-.95a83,83,0,0,1-16.5,19.32c-7.62,6.32-14.19,4.83-26,11.94,0,0,13,34.71,12.05,65.52,0,0,2.07,20,5.29,38.78l96.67-.56s6.28-24,6.66-47c0,0,5-43.62,15.47-60.09-13.83-6.62-24.06-6.24-35.81-11.73s-19.71-19.2-19.71-19.2l-2.36,1.1.51,6.38s8,9.07,11.33,17.65c4,10.49-7.58,113.43-7.58,113.43l-36.76-.56s-9.66-102.32-8.34-112,9.54-17.94,9.54-17.94Z" transform="translate(0 -30.89)"/><path class="cls-81" d="M82.6,286.69V298.4L64.51,328.28s-4.26-12.6-4.45-15,0-6.54,0-6.54l-2.85-2.27.48,4.26s1.51,25.58-26.15,37.14c0,0,2-18.06,10.67-33L41.83,311s-9.72,14-12.56,37.7l8.52,4s8.53,24.58,19.71,38.55l12.47.12S88.67,375,97.1,349.62C97.1,349.62,101.27,318.61,82.6,286.69Z" transform="translate(0 -30.89)"/><path class="cls-82" d="M79.73,228.93s-9.47,14.4-11.24,19.71-.38,15.16-1.9,17.43c0,0-9.72,8.46-10.86,11.12s0,16.42,0,16.42c-3.85,7.29-13,9.56-13,9.56s-.85-23.58-1.14-24.15-5.7-4-5.7-4a74.25,74.25,0,0,1-3.34-10.07c-1.05-4-1.79-7.9-2.29-11.09h0c-.73-4.56-1-7.69-1-7.69l-.76-9.38c1.32-6.06,4.86-5.11,4.86-5.11a60,60,0,0,0,2,10.74L36,242a93.22,93.22,0,0,1-1.39-11.69c1.77-5.11,6.13-3.72,6.13-3.72,1.07,6.19,2.46,12.44,2.46,12.44-1.2-8-.38-20.53-.38-20.53,1.64,3.73,6.38,4.3,6.38,4.3-.95,4.35,0,13.53,0,13.53l1-.59c.35-4.43,1-9.18,1.8-13.72A167.52,167.52,0,0,1,57,200.33c1.27-3.29,4.55-.67,4.55-.67,1.34,6.26,2,10.93,1.3,14.26h0C61.79,219,58.63,221,58.63,221S56.36,233,56.55,235s1.23,15.16,1.23,15.16c5.21-2.84,6.63-6.82,6.63-6.82.1-8.53,3.79-13.17,8.53-15.16S79.73,228.93,79.73,228.93Z" transform="translate(0 -30.89)"/><path class="cls-17" d="M115.94,199.86l-.37,1.23s7.55,1.93,14.1-2.4Z" transform="translate(0 -30.89)"/><path d="M42.49,297.13s-3.81,4.12-4.32,7.4c0,0,2.46,6.13,4,8.4l1,26.06s15-10.71,14.43-30.23c0,0-1-13.17,0-16.86L55.54,291l.19,2.63s-6.38,8.06-13,9.57Z" transform="translate(0 -30.89)"/><path class="cls-83" d="M218.74,283.36v10.43s33.7,52.87,44.35,85.71l2.81,11.89s-19.69-28.82-35-27.3S214,374.7,214,374.7l1.14,4.74L214,381.33l-3.22-14.4h-2.84v-2.27l-5.24-10.45S200.36,306.21,218.74,283.36Z" transform="translate(0 -30.89)"/><path class="cls-84" d="M143.8,178.41s.71-5.21,2.85-6.44Z" transform="translate(0 -30.89)"/><path class="cls-17" d="M148.4,196.39a25.09,25.09,0,0,0,14.59-1.7l-1-1.18S159,196.51,148.4,196.39Z" transform="translate(0 -30.89)"/><path class="cls-85" d="M113.22,185.6c-5.19,4.08.49,19.65.49,19.65s12.57,2.68,19.48-5.39V190s2-3.14,9.16-2.9c0,0,2.58,9.56,4.4,13.82,0,0,12.94,3.29,19.76-5.23,0,0,.56-9.46-2.59-14s-20.12-3.22-20.12-3.22-4,3.22-14.4,2.46C129.4,180.87,116.59,183,113.22,185.6Z" transform="translate(0 -30.89)"/><path class="cls-86" d="M129.67,197.32s-1.7-7.07-7-7.36-6.31,7.36-6.31,7.36Z" transform="translate(0 -30.89)"/><path class="cls-87" d="M147.45,194.69s-.14-8.23,5.35-9.65,7.85,5.11,7.85,5.11Z" transform="translate(0 -30.89)"/><path class="cls-28" d="M161.61,194.7a9,9,0,0,1-3.34,1.06,48.82,48.82,0,0,1-7.29.74c-1.9,0-3.33-.1-3.48-.47-.57-1.42,1.13-7,6.41-8.06S163.32,193.28,161.61,194.7Z" transform="translate(0 -30.89)"/><path class="cls-28" d="M129.91,198.41c-.07.29-.73.64-1.74,1a33.27,33.27,0,0,1-8.21,1.48,12.44,12.44,0,0,1-3-.16c-2.68-.58-.74-6.43,4.19-7.69a6,6,0,0,1,1.91-.18h0a7.88,7.88,0,0,1,4.21,1.71.12.12,0,0,1,.05,0C129.07,195.94,130.09,197.68,129.91,198.41Z" transform="translate(0 -30.89)"/><path class="cls-17" d="M135.47,212.54s-3.79.25-4.93-1.17.85-2.07,4-4.49,6.35-1.67,9.28-.43,5.31,1.4,5.64,2.48-3.69,2.35-4.78,2.3-1.52-.38-2.61.28a7.81,7.81,0,0,1-4.5.81A3.43,3.43,0,0,0,135.47,212.54Z" transform="translate(0 -30.89)"/><path class="cls-88" d="M142.05,211.51a2.07,2.07,0,0,1,1.94-1.13c1.33.14,2.76.42,2.76.42A7.21,7.21,0,0,1,142.05,211.51Z" transform="translate(0 -30.89)"/><path class="cls-88" d="M137.29,212.28a2.44,2.44,0,0,0-2-1.26c-1.37-.07-2.13,1.44-2.13,1.44a5.58,5.58,0,0,0,2.28.08A5.84,5.84,0,0,1,137.29,212.28Z" transform="translate(0 -30.89)"/><path class="cls-89" d="M144.4,203.16s5.21-.53,5,5.77A6.3,6.3,0,0,0,144.4,203.16Z" transform="translate(0 -30.89)"/><path class="cls-90" d="M159.17,193a4.77,4.77,0,0,1-.9,2.8,48.82,48.82,0,0,1-7.29.74,4.86,4.86,0,1,1,8.19-3.54Z" transform="translate(0 -30.89)"/><path class="cls-90" d="M128.48,197.69a4.79,4.79,0,0,1-.31,1.7,33.27,33.27,0,0,1-8.21,1.48,4.74,4.74,0,0,1-1.21-3.18,4.88,4.88,0,0,1,4.33-4.85h0l.5,0a4.81,4.81,0,0,1,3.71,1.73.12.12,0,0,1,.05,0A4.77,4.77,0,0,1,128.48,197.69Z" transform="translate(0 -30.89)"/><path class="cls-91" d="M147.45,194.69s1.59-5.94,6.92-6.48a7.41,7.41,0,0,1,7.22,4s-1.33-4.87-5.88-5.12S148.29,190.77,147.45,194.69Z" transform="translate(0 -30.89)"/><path class="cls-91" d="M129.49,197s-3.35-4.66-8.18-3.55a7.19,7.19,0,0,0-5.55,5.47s.46-5.1,5.12-6.52C126,190.81,129.49,197,129.49,197Z" transform="translate(0 -30.89)"/><path class="cls-92" d="M128.48,221s3.29,1.32,12.26.46a21.16,21.16,0,0,0,14-7.56s-6.65,9.13-12.13,9.76-7.73-.93-10.48-1.68Z" transform="translate(0 -30.89)"/><path class="cls-28" d="M136.89,222.05a7.56,7.56,0,0,0,5.82,1.26,10.8,10.8,0,0,0,5.11-3.5A30.55,30.55,0,0,1,136.89,222.05Z" transform="translate(0 -30.89)"/><path class="cls-93" d="M152.42,213.27a6.23,6.23,0,0,1,5.78,3.54S158.87,211.75,152.42,213.27Z" transform="translate(0 -30.89)"/><path class="cls-94" d="M139,225.94a14.14,14.14,0,0,0,8.8-1.59s-1.25,4.55-4.19,4.83S139,225.94,139,225.94Z" transform="translate(0 -30.89)"/><path class="cls-95" d="M156.85,192.82a2.55,2.55,0,1,1-2.54-2.55A2.55,2.55,0,0,1,156.85,192.82Z" transform="translate(0 -30.89)"/><path class="cls-96" d="M126.16,197.32a2.55,2.55,0,1,1-2.54-2.55A2.55,2.55,0,0,1,126.16,197.32Z" transform="translate(0 -30.89)"/><path class="cls-60" d="M156.4,192.29s2.28-1.08,3.75.67Z" transform="translate(0 -30.89)"/><path class="cls-60" d="M125.19,196.8a4,4,0,0,1,3.74.27Z" transform="translate(0 -30.89)"/><path class="cls-97" d="M143.9,178.4s2-6.29,7.45-6.43L145,177.46S150.66,173,156,174a14.1,14.1,0,0,1,8,7.65A47.55,47.55,0,0,0,143.9,178.4Z" transform="translate(0 -30.89)"/><path class="cls-98" d="M129.4,180.87s-.47-4.52-3.57-6.11l2.79,4.92s-2.49-2.74-4.14-3.17-8.06,2-11.26,9.09A79.56,79.56,0,0,1,129.4,180.87Z" transform="translate(0 -30.89)"/><path class="cls-42" d="M127.74,162.23c4.54-.75,14-16.42,23.48-17.68s12.14,14.69,10.37,17-12.13,2-12.13,2-12.59-.67-16.46-1.28S127.74,162.23,127.74,162.23Z" transform="translate(0 -30.89)"/><path class="cls-99" d="M162.1,164.67s7.19,2.89,10.85,7.3,2.61,10.85,2.61,10.85l-1.21,5.27S176.39,171.79,162.1,164.67Z" transform="translate(0 -30.89)"/><path class="cls-100" d="M118.37,165.25s-15.54,7.42-12.5,22.6l1.76,5.11S104.34,176.22,118.37,165.25Z" transform="translate(0 -30.89)"/><path class="cls-101" d="M119.55,164.19S109.67,166,104.68,174A17,17,0,0,1,119.55,164.19Z" transform="translate(0 -30.89)"/><path class="cls-102" d="M128.93,161.77s7.54-8.22,18.89-6.87,13.77,9.77,13.77,9.77-1.25-12.35-12.15-14.31S128.93,161.77,128.93,161.77Z" transform="translate(0 -30.89)"/><path class="cls-103" d="M167.09,159.28s10.13,3.17,10.56,11.94C177.65,171.22,180.48,161.49,167.09,159.28Z" transform="translate(0 -30.89)"/><path class="cls-104" d="M134,204.55c-1,1.56,3.51-.26,6.82,0s3,.68,3.13,0-2.47-3.83-5.4-3.36A6.27,6.27,0,0,0,134,204.55Z" transform="translate(0 -30.89)"/><path class="cls-105" d="M137.55,212.32a7.25,7.25,0,0,1-3.74-4.55l-1.83.94A7.57,7.57,0,0,0,137.55,212.32Z" transform="translate(0 -30.89)"/><path class="cls-106" d="M131.93,188.51c-1.35-2.29-13.67-3.19-21,4.12-3,3.05,0,15,4.48,18.12s13,1.35,15.86-5.3S133.27,190.8,131.93,188.51Zm-12.28,22.24c-6.62-.32-11-11.3-7.85-16.32,3.94-6.35,16.83-8.06,18.33-3.93C136.41,207.68,124.85,211,119.65,210.75Z" transform="translate(0 -30.89)"/><path class="cls-106" d="M144.23,186.12c1-2.54,14.25-7.24,23.13-1.63,3.71,2.34,2.54,15.55-2.06,19.92-4.18,4-13.23,4.12-17.39-1.8S143.24,188.66,144.23,186.12Zm16.71,19.19c6.81-1.74,10-14.62,5.87-18.87-5.21-5.39-19.54-3.13-20.37,1.25C143,205.9,155.59,206.68,160.94,205.31Z" transform="translate(0 -30.89)"/><path class="cls-107" d="M131.93,188.09c-1.35-2.15-13.67-3-21,3.86-3,2.86,0,14,4.48,17s13,1.26,15.86-5S133.27,190.24,131.93,188.09Zm-12.28,20.84c-6.62-.31-11-10.59-7.85-15.29,3.94-5.95,16.83-7.55,18.33-3.69C136.41,206.05,124.85,209.16,119.65,208.93Z" transform="translate(0 -30.89)"/><path class="cls-108" d="M144.23,185.85c1-2.38,14.25-6.78,23.13-1.52,3.71,2.19,2.54,14.56-2.06,18.65-4.18,3.73-13.23,3.86-17.39-1.67S143.24,188.23,144.23,185.85Zm16.71,18c6.81-1.63,10-13.69,5.87-17.68-5.21-5.05-19.54-2.93-20.37,1.17C143,204.39,155.59,205.11,160.94,203.83Z" transform="translate(0 -30.89)"/><path class="cls-109" d="M132.68,191.43s6.6-2.65,12-.56l-.37-2.78a15.16,15.16,0,0,0-11.89,1.23Z" transform="translate(0 -30.89)"/><polygon class="cls-110" points="170.74 159.07 172.66 163.89 175.07 162.94 171.84 154.15 170.74 159.07"/><polygon class="cls-111" points="109.93 163.81 107.42 164.62 108.18 167.51 110.05 168 109.93 163.81"/><polygon class="cls-111" points="172.08 158.88 169.55 159.3 168.4 154.49 171.84 154.15 172.08 158.88"/><path class="cls-112" d="M146.75,192s-.89,7.55,6.15,11.2a17.19,17.19,0,0,0,9.1-.4l-4.08-11.32Z" transform="translate(0 -30.89)"/><path class="cls-112" d="M112.15,196.55s-.74,7.54,5,11.2a11.72,11.72,0,0,0,7.45-.4L121.28,196Z" transform="translate(0 -30.89)"/><path class="cls-17" d="M133.18,195.56a10.82,10.82,0,0,1,11-1.47l-.64-2.09a10.46,10.46,0,0,0-10.47,1.07Z" transform="translate(0 -30.89)"/><path class="cls-17" d="M170.69,213.27s1.76.41,2.21,1.62-2.5,2.62-2.5,2.62Z" transform="translate(0 -30.89)"/><path class="cls-17" d="M114.33,217.51s-2,2.19-1.71,3,2.57,1,2.57,1Z" transform="translate(0 -30.89)"/><path class="cls-113" d="M128.93,161.77a27.92,27.92,0,0,1,15,0c8.64,2.2,3.92,7.13,3.92,7.13S145.16,158.9,128.93,161.77Z" transform="translate(0 -30.89)"/><path class="cls-69" d="M149.46,140.6a3,3,0,0,1,1.39,4,6.68,6.68,0,0,1,5.43,1.11,6.34,6.34,0,0,0-2.66-2.15c-1.48-.47-1.61-3-1.61-3A5.73,5.73,0,0,0,149.46,140.6Z" transform="translate(0 -30.89)"/><path class="cls-69" d="M149.84,150.44c.93.87-1.61,4.51-1.61,4.51l4.3,1.05s-1.53-1.49-1.38-2.78,1.72-1.79,1.72-1.79Z" transform="translate(0 -30.89)"/><path class="cls-42" d="M125.15,266.07s1.94,29.79,20.07,30.94c20.24,1.29,21.32-23.87,18.8-34,3.75,15.23.44,34.33-18.39,34.74C126.33,298.19,125.15,266.07,125.15,266.07Z" transform="translate(0 -30.89)"/><path class="cls-114" d="M130.22,239.64s9.65,37.88,11.83,40-3.84-36.39-3.84-36.39Z" transform="translate(0 -30.89)"/><path class="cls-42" d="M160.86,253.53l1.24-1.1s8.7,14.72,11.73,23.4S167.35,391,167.35,391l-10.56-.33s11.31-62.74,13.33-87.49a80.47,80.47,0,0,0-8.75-43.26Z" transform="translate(0 -30.89)"/><path class="cls-42" d="M136.37,390.78s-15-98.48-14.07-111.18,7.26-19.09,7.26-19.09l-.1-4.13-4.32-.95s-5.87,15.81-6.82,24.25,6.83,111.1,6.83,111.1Z" transform="translate(0 -30.89)"/><path class="cls-115" d="M111,272.38s-9.57,10.74-17.15,17.81c0,0,1.89,4.8,12,6.57l-8.38,9.48s8.5,52.29,19.11,84.88l8.54-.34s-7.59-98.88-6.83-111.1,6.82-24.25,6.82-24.25S118.81,264,111,272.38Z" transform="translate(0 -30.89)"/><path class="cls-116" d="M163.22,252.43S174,269.37,186.13,273l13.47,16.94s-.09,5.69-14.68,8.6l9.25,11s-6.07,48-19.74,81l-7.08.43s10.32-98,6.83-113.36A71.8,71.8,0,0,0,163.22,252.43Z" transform="translate(0 -30.89)"/><path class="cls-117" d="M125.19,272.38s-.55,33.86,17.16,54.82Z" transform="translate(0 -30.89)"/><path class="cls-118" d="M168.4,275.7s4,24.65-20,39.85C148.4,315.55,164.6,298.47,168.4,275.7Z" transform="translate(0 -30.89)"/><path class="cls-42" d="M38.17,319.94l2.77,20.81s16.43-8.75,16.75-32c0,0-2.21,15.67-14.09,23.12l-1.39-18.95-.77-1.29Z" transform="translate(0 -30.89)"/><path class="cls-42" d="M42.72,303.17l-3.79.86a15.89,15.89,0,0,1,3.6-5.88Z" transform="translate(0 -30.89)"/><path class="cls-119" d="M62,213.92C61,219,58.63,221,58.63,221S56.36,233,56.55,235c-8.9,1.74-21.28,8.25-23.94,11.78-2.44,3.25-.45,15.9-.12,17.92l-2.24-10.82h0c-.73-4.56-1-7.69-1-7.69l-.76-9.38c1.32-6.06,4.86-5.11,4.86-5.11a60,60,0,0,0,2,10.74L36,242a93.22,93.22,0,0,1-1.39-11.69c1.77-5.11,6.13-3.72,6.13-3.72,1.07,6.19,2.46,12.44,2.46,12.44-1.2-8-.38-20.53-.38-20.53,1.64,3.73,6.38,4.3,6.38,4.3-.95,4.35,0,13.53,0,13.53l1-.59c.35-4.43,1-9.18,1.8-13.72C58.86,220.62,61.85,214.31,62,213.92Z" transform="translate(0 -30.89)"/><path class="cls-120" d="M42.78,218.51l18.13-9.58s6.14,11.67-11.75,13.87C49.16,222.8,43.6,224,42.78,218.51Z" transform="translate(0 -30.89)"/><path class="cls-121" d="M36.57,227.05l12.5-8.48s2.84,4,.34,7.76c-2.15,3.21-9.19,6.28-14.75,5C34.66,231.38,33.94,229.12,36.57,227.05Z" transform="translate(0 -30.89)"/><path class="cls-122" d="M33,231.46l11-.86s.43,6-5.27,6.73a18.49,18.49,0,0,1-10-1.18A4.17,4.17,0,0,1,33,231.46Z" transform="translate(0 -30.89)"/><path class="cls-51" d="M54.49,212.32c-2.53,1.34,1.54,1,3.53,0a8.11,8.11,0,0,1,2.89-3.39Z" transform="translate(0 -30.89)"/><path class="cls-51" d="M49.07,218.57s-3.64,2.36-4.2,4.64c0,0-4.8,2.47-3.54.86s7.74-5.5,7.74-5.5Z" transform="translate(0 -30.89)"/><path class="cls-51" d="M44.07,230.6s-2.3-.31-4.1,2.39c0,0-4.3.27-3.54-1.11S44.07,230.6,44.07,230.6Z" transform="translate(0 -30.89)"/><path class="cls-123" d="M66.59,266.07s-12.76,7.7-15.91,11.49a42.73,42.73,0,0,0-3.79,4.93l8.84-5.31S59.39,273,66.59,266.07Z" transform="translate(0 -30.89)"/><path class="cls-124" d="M57.78,250.12S46.63,252.05,46,264.93c0,0-.06-18.32,11.7-15.78Z" transform="translate(0 -30.89)"/><path class="cls-125" d="M64.41,243.3c.79,2.3,8.66-3.66,8.66-3.66s-6.11,8.3-5.56,16.45c0,0-1.7-5.12-6.11-5.69a15.69,15.69,0,0,0-8.61,1.84,20.39,20.39,0,0,1,5-2.12S62.73,247.24,64.41,243.3Z" transform="translate(0 -30.89)"/><path class="cls-126" d="M42.59,300.3a24.26,24.26,0,0,0,13.14-6.7s-5.18,7.27-13,9.57Z" transform="translate(0 -30.89)"/><path class="cls-127" d="M82.6,298.4s9.41,20.4,12.05,43c0,0,1.88-33.91-12.05-54.66Z" transform="translate(0 -30.89)"/><path class="cls-128" d="M64.51,328.28s12.12,15.16,12.88,33c0,0,3.79-27.1-12.23-34.05Z" transform="translate(0 -30.89)"/><path class="cls-129" d="M29.27,348.74s16.54-2.27,26.46-19.7c0,0-2.4,20.08-17.94,23.68Z" transform="translate(0 -30.89)"/><path class="cls-130" d="M60.06,313.31s3.88,24.44,6.53,42.82S68.11,377,68.11,377s1.31-10.12-.57-28.62A180.1,180.1,0,0,0,60.06,313.31Z" transform="translate(0 -30.89)"/><path class="cls-42" d="M94.65,352.21l-.77-17.6s5.55,43.25,16.16,56.32l3.42-2.21s-5-24.8-9.38-47.37l12.53,49.77L99.94,391S95.93,364.09,94.65,352.21Z" transform="translate(0 -30.89)"/><path class="cls-131" d="M218.74,283.36s-12.64,17.89-14.37,39.74c0,0,4.71-19.45,14.37-29.31Z" transform="translate(0 -30.89)"/><path class="cls-132" d="M212.87,313.31s1.89,34.29-2.09,53.62h-2.84S215.71,341.16,212.87,313.31Z" transform="translate(0 -30.89)"/><path class="cls-133" d="M202.7,354.21l1.67-22.33s-6.09,44.43-15.57,58.59l7.81,0S201.92,370.65,202.7,354.21Z" transform="translate(0 -30.89)"/><path class="cls-134" d="M211.56,370.4s5-10.39,13.56-12.2,25.45,3,25.45,3A16.7,16.7,0,0,0,233,351.33c-13.14,1.52-15.16,8-17.75,11.94s-4.23,4.48-4.23,4.48Z" transform="translate(0 -30.89)"/><path class="cls-135" d="M218.11,363.08s6.5-5,17.94-3.35,14,4,14,4S232.57,357.27,218.11,363.08Z" transform="translate(0 -30.89)"/><path class="cls-136" d="M206.38,361.55s6.92-27.21,2.63-52c0,0-6.62,6.2-6.31,44.69Z" transform="translate(0 -30.89)"/><path class="cls-42" d="M178.19,390.47s12-40.67,11.9-74.92c0,0-3.88,42.93-15.66,75Z" transform="translate(0 -30.89)"/><path class="cls-137" d="M221.39,366.93l1.33,9.95s12.75,1.84,12.91,1.58,0-13.23,0-13.23Z" transform="translate(0 -30.89)"/><path class="cls-138" d="M235.73,362.07c-17.81-2.78-24,9.09-24,9.09L214,381.33c21.19,13.11,51.9,10.06,51.9,10.06S253.54,364.85,235.73,362.07Zm-20.59,17.37-.76-6.26s2-10.54,19.71-9c13.89,1.19,28.13,24.64,28.13,24.64C234.66,393.4,215.14,379.44,215.14,379.44Z" transform="translate(0 -30.89)"/><path class="cls-139" d="M215.86,378.46s-11.11,5.14-13.26,7a7.69,7.69,0,0,0,0,3.84c.6,1.56,4.87,1.56,7.42.71s6.35-7.87,6.35-7.87Z" transform="translate(0 -30.89)"/><path d="M209.68,391.5s3.31-15,14-19.67,24.9,9.18,25.53,19.92Z" transform="translate(0 -30.89)"/><path class="cls-140" d="M211.17,386.85h12.37s1.84-10.51,5.18-15.75C228.72,371.1,217.3,370.45,211.17,386.85Z" transform="translate(0 -30.89)"/><path class="cls-141" d="M216.28,377.73a22.09,22.09,0,0,1,12.27-.38c7,1.69,17.18,12.06,18,12.51a11,11,0,0,0,2.43.7s-2.81-14.88-14.37-18.8S216.28,377.73,216.28,377.73Z" transform="translate(0 -30.89)"/><path class="cls-142" d="M226.9,386.85s.81-10.73,2.9-15.09c0,0,6.34.92,9.53,3.33l-.7,12Z" transform="translate(0 -30.89)"/><path class="cls-143" d="M251.08,380.45c0,2.59-1.44,6-2.06,7.33v0l-.26.53h0c-3.85.57-4.56-2.22-4.56-2.22l.94-2,0,0a3.31,3.31,0,0,1-3.42,0c-1.9-1.09-3.38-4.5-3.38-4.5l.69-2.7a10.37,10.37,0,0,1-.82,1,3,3,0,0,1-.79.65c-.69.31-6.25-1.14-6.82-2.31a10.68,10.68,0,0,1-.17-3.48v0c.11-2.19.38-4.55.38-4.55l-2.11-.38a24.64,24.64,0,0,1-3.08,5.07v0a3.76,3.76,0,0,1-.32.28,51.85,51.85,0,0,1-6.51,3.06c-3.15-1.15-3.44-3.4-3.24-4.87a5.49,5.49,0,0,1,.38-1.43c2.53-3.54,2.74-8.55,6.79-8.45s5.67,2.54,5.67,2.54a7.06,7.06,0,0,0,2.43.43,11.4,11.4,0,0,1,6,.1c2.86,1,4.59,4.7,4.59,4.7s4.61,2.53,5.43,3.73.57,4.67.57,4.67C249.25,378.11,251.08,380.45,251.08,380.45Z" transform="translate(0 -30.89)"/><path class="cls-42" d="M184.92,298.54l-10-6.17A31.74,31.74,0,0,1,184.92,298.54Z" transform="translate(0 -30.89)"/><path class="cls-42" d="M105.88,296.76s7.89-6.95,12.54-8A95,95,0,0,0,105.88,296.76Z" transform="translate(0 -30.89)"/><path class="cls-144" d="M90.2,391.39s-10.15-42.83-13.09-75c0,0,74.25-10.58,129.83-4.57,0,0-2.4,42.72-8.62,79.56Z" transform="translate(0 -30.89)"/><path class="cls-61" d="M148.4,311.9,90.2,391.39h47.35l52.54-79.49S165.41,310,148.4,311.9Z" transform="translate(0 -30.89)"/><path class="cls-145" d="M77.11,316.4l2.24-3.34s63-9.21,124-3.39l3.57,2.16S135,308.56,77.11,316.4Z" transform="translate(0 -30.89)"/><path class="cls-60" d="M128.75,357.62s8.35-14,22.17-15.57C150.92,342.05,149.59,351.28,128.75,357.62Z" transform="translate(0 -30.89)"/><path class="cls-60" d="M184.92,308.34v3l-21.7-.16v-3.43S179.33,308,184.92,308.34Z" transform="translate(0 -30.89)"/><path class="cls-60" d="M86.12,312.19v3.06l15.94-1.53.72-3.29S90.48,311.64,86.12,312.19Z" transform="translate(0 -30.89)"/><path class="cls-146" d="M88.67,384.64s8.75,5.11,53.68,5.93,56.72-3.74,56.72-3.74l-.75,4.56H90.2Z" transform="translate(0 -30.89)"/><path class="cls-42" d="M225.58,373v0a3.76,3.76,0,0,1-.32.28,51.85,51.85,0,0,1-6.51,3.06c-3.15-1.15-3.44-3.4-3.24-4.87,1.53.8,9.11-.92,9.87-.54S225.58,373,225.58,373Z" transform="translate(0 -30.89)"/><path class="cls-42" d="M239,375.5a6.18,6.18,0,0,1-.83,2.47,3,3,0,0,1-.79.65c-.69.31-6.25-1.14-6.82-2.31a10.68,10.68,0,0,1-.17-3.48v0s3-2,5.3-1.05S239,374.08,239,375.5Z" transform="translate(0 -30.89)"/><path class="cls-42" d="M246.07,381.62a4.45,4.45,0,0,1-.95,2.51l0,0a3.31,3.31,0,0,1-3.42,0c-1.9-1.09-3.38-4.5-3.38-4.5.32-1.26,2-1.85,4-.95A12.72,12.72,0,0,1,246.07,381.62Z" transform="translate(0 -30.89)"/><path class="cls-42" d="M249,387.78v0a.75.75,0,0,1-.26.53h0c-3.85.57-4.56-2.22-4.56-2.22.46-1,2.55-1.09,3.69-.38A2.32,2.32,0,0,1,249,387.78Z" transform="translate(0 -30.89)"/><path class="cls-42" d="M202.6,389.34a6.49,6.49,0,0,0,5.86.28c3.46-1.37.89-7.82.89-7.82l6.2-3.11S211,385.64,210,390.05C210,390.05,204,391.76,202.6,389.34Z" transform="translate(0 -30.89)"/><path class="cls-51" d="M216.37,370.31a14,14,0,0,1,7.17-.73s-1-2.94-3.58-2.65S216.37,370.31,216.37,370.31Z" transform="translate(0 -30.89)"/><path class="cls-51" d="M233.8,370.84s4.08-.17,5.45,2c0,0-1.23-3.65-2.94-3.5A3.4,3.4,0,0,0,233.8,370.84Z" transform="translate(0 -30.89)"/><path class="cls-51" d="M242.18,377.49s3.08.9,3.89,2.94c0,0,0-3.79-1.42-4.12S242.18,377.49,242.18,377.49Z" transform="translate(0 -30.89)"/><path class="cls-51" d="M246.6,384.54s1.92.41,2.43,1.24c0,0,.78-2.6-.45-2.93S246.6,384.54,246.6,384.54Z" transform="translate(0 -30.89)"/><path class="cls-147" d="M241.35,369.33a39.45,39.45,0,0,1-2.37,7.6,11.81,11.81,0,0,0,3.2-7.13Z" transform="translate(0 -30.89)"/><path class="cls-148" d="M247.35,377.73l-1.64,5.43s3.47-1.62,2.9-4.92Z" transform="translate(0 -30.89)"/><path class="cls-42" d="M226.68,371.51l1.66-7.41.71.21-.39,3.57,2.11.38-.27,2.84S227.6,370.87,226.68,371.51Z" transform="translate(0 -30.89)"/><path class="cls-42" d="M184.92,298.54s10.33-3.17,14.68-8.6c0,0-1.93,9.27-13,10.54Z" transform="translate(0 -30.89)"/><path class="cls-42" d="M93.88,290.19s-.81,6.55,9.83,9l3.29-3.4A31.23,31.23,0,0,1,93.88,290.19Z" transform="translate(0 -30.89)"/><path class="cls-149" d="M171.4,262.72s5.85,13.33,10,17.68S197,286.69,197,286.69L186.13,273S178.27,271.11,171.4,262.72Z" transform="translate(0 -30.89)"/><path class="cls-150" d="M122.85,258.41s-4.44,11.32-7.28,20.6-15.14,10.43-15.14,10.43S113.74,268.22,122.85,258.41Z" transform="translate(0 -30.89)"/><polygon class="cls-17" points="35.44 243.04 44.07 247.94 41.58 248.13 35.88 244.11 35.44 243.04"/><path class="cls-151" d="M37.41,253.31c1.87-4.8,14-10.65,16.71-9.62s1.94,7.23,1.94,7.23-7.35.74-10,12.11c0,0-3.47,3.63-5.88,1.63S37.41,253.31,37.41,253.31Z" transform="translate(0 -30.89)"/><path class="cls-152" d="M218.74,293.79a218.64,218.64,0,0,0,10.73,33.41c7.74,19.15,27.14,35.67,27.14,35.67S234.63,317.28,218.74,293.79Z" transform="translate(0 -30.89)"/><path class="cls-152" d="M190.09,274.7a37.56,37.56,0,0,0,7.46,8.24c4.17,3.15,16.8,7,16.8,7l4.39-6.58a113,113,0,0,0-16.14-5.65C194.62,275.71,190.09,274.7,190.09,274.7Z" transform="translate(0 -30.89)"/><path class="cls-152" d="M82.6,286.69a86.74,86.74,0,0,1,4.48,8.52s5.63-5.45,9.16-9.12a27.09,27.09,0,0,0,5-7.07C95.5,281,85.76,283.87,82.6,286.69Z" transform="translate(0 -30.89)"/><path class="cls-153" d="M147,178.23a15,15,0,0,1,11.25-3.13A36.28,36.28,0,0,0,147,178.23Z" transform="translate(0 -30.89)"/><path class="cls-154" d="M149.11,178.23s7.78-2.52,12.48-.29A25.49,25.49,0,0,0,149.11,178.23Z" transform="translate(0 -30.89)"/><path class="cls-155" d="M128.93,181s-3.92-4.25-7.57-3.78Z" transform="translate(0 -30.89)"/><path class="cls-156" d="M127.74,181.16S122,176.87,117.15,180C117.15,180,121.36,178,127.74,181.16Z" transform="translate(0 -30.89)"/><path class="cls-157" d="M50.44,222.62a6.51,6.51,0,0,0-1.37-4.05,5.1,5.1,0,0,1,2.27,3.9Z" transform="translate(0 -30.89)"/><path class="cls-158" d="M43.11,230.59l-8.45.79S37.42,230.21,43.11,230.59Z" transform="translate(0 -30.89)"/><rect y="360.5" width="400" height="8.61"/></g></g></svg>