<svg xmlns="http://www.w3.org/2000/svg" width="442.984" height="109.108" viewBox="0 0 442.984 109.108">
  <g id="TeamssDM" transform="translate(-9230.953 -1749.505)">
    <g id="TeamMid" transform="translate(-15.555 -59)">
      <g id="Group_11578" data-name="Group 11578" transform="translate(27 0)">
        <g id="Group_11554" data-name="Group 11554" transform="translate(9367.178 1414.505)">
          <g id="Group_11553" data-name="Group 11553" transform="translate(0 -29.892)">
            <g id="Group_11551" data-name="Group 11551" transform="translate(64.073 329.785)">
              <path id="Path_968" data-name="Path 968" d="M222.749,171.458l-10.976-7.878a3.588,3.588,0,0,0-2.095-.675H74.768a3.594,3.594,0,0,0-3.593,3.595v31.511a3.594,3.594,0,0,0,3.593,3.593H212.4a3.591,3.591,0,0,0,3.393-2.409l8.251-23.633A3.591,3.591,0,0,0,222.749,171.458Z" transform="translate(6.994 1.515)" fill="#fff"/>
              <path id="Path_969" data-name="Path 969" d="M220.412,171.66l-10.693-7.482a3.562,3.562,0,0,0-2.041-.64H76.256a3.457,3.457,0,0,0-3.5,3.413v29.924a3.458,3.458,0,0,0,3.5,3.413H210.333a3.5,3.5,0,0,0,3.3-2.289l8.038-22.442A3.363,3.363,0,0,0,220.412,171.66Z" transform="translate(7.85 1.858)" fill="#243056"/>
              <path id="Path_970" data-name="Path 970" d="M74.336,200.108a3.52,3.52,0,0,0,1.064.177h77.313l36.749-36.747H110.906Z" transform="translate(8.706 1.858)" fill="#fff" opacity="0.08" style="mix-blend-mode: luminosity;isolation: isolate"/>
              <path id="Path_971" data-name="Path 971" d="M159.133,200.285l28.652-28.652-10.656-7.456a3.562,3.562,0,0,0-2.041-.64H169.7l-36.749,36.747Z" transform="translate(40.44 1.858)" fill="#fff" opacity="0.08" style="mix-blend-mode: luminosity;isolation: isolate"/>
              <g id="Group_11550" data-name="Group 11550" transform="translate(104.47 186.77)">
                <g id="Group_11547" data-name="Group 11547">
                  <path id="Path_972" data-name="Path 972" d="M89.79,176.614H87.478a.578.578,0,1,1,0-1.156H89.79a.578.578,0,0,1,0,1.156Z" transform="translate(-86.9 -175.458)" fill="#fff"/>
                </g>
                <g id="Group_11548" data-name="Group 11548" transform="translate(7.077)">
                  <path id="Path_973" data-name="Path 973" d="M173.1,176.614h-4.766a.578.578,0,1,1,0-1.156H173.1a.578.578,0,0,1,0,1.156Zm-9.534,0H158.8a.578.578,0,1,1,0-1.156h4.765a.578.578,0,1,1,0,1.156Zm-9.531,0h-4.768a.578.578,0,1,1,0-1.156h4.768a.578.578,0,0,1,0,1.156Zm-9.534,0h-4.766a.578.578,0,0,1,0-1.156H144.5a.578.578,0,0,1,0,1.156Zm-9.531,0H130.2a.578.578,0,0,1,0-1.156h4.768a.578.578,0,0,1,0,1.156Zm-9.534,0h-4.766a.578.578,0,0,1,0-1.156h4.766a.578.578,0,1,1,0,1.156Zm-9.534,0h-4.765a.578.578,0,1,1,0-1.156H115.9a.578.578,0,1,1,0,1.156Zm-9.531,0H101.6a.578.578,0,0,1,0-1.156h4.766a.578.578,0,0,1,0,1.156Zm-9.534,0H92.069a.578.578,0,1,1,0-1.156h4.766a.578.578,0,0,1,0,1.156Z" transform="translate(-91.491 -175.458)" fill="#fff"/>
                </g>
                <g id="Group_11549" data-name="Group 11549" transform="translate(92.869)">
                  <path id="Path_974" data-name="Path 974" d="M150.039,176.614h-2.312a.578.578,0,1,1,0-1.156h2.312a.578.578,0,1,1,0,1.156Z" transform="translate(-147.149 -175.458)" fill="#fff"/>
                </g>
              </g>
              <path id="Path_975" data-name="Path 975" d="M76.014,162.716l-16.247,11.8a3.666,3.666,0,0,0-1.332,4.1l6.206,19.1a3.664,3.664,0,0,0,3.487,2.533H88.21a3.664,3.664,0,0,0,3.487-2.533l6.206-19.1a3.664,3.664,0,0,0-1.332-4.1l-16.247-11.8A3.669,3.669,0,0,0,76.014,162.716Z" transform="translate(0 1.034)" fill="#ccc" opacity="0.5" style="mix-blend-mode: multiply;isolation: isolate"/>
              <path id="Path_976" data-name="Path 976" d="M76.014,160.807l-16.247,11.8a3.664,3.664,0,0,0-1.332,4.1l6.206,19.1a3.666,3.666,0,0,0,3.487,2.533H88.21A3.666,3.666,0,0,0,91.7,195.81l6.206-19.1a3.661,3.661,0,0,0-1.332-4.1l-16.247-11.8A3.664,3.664,0,0,0,76.014,160.807Z" transform="translate(0)" fill="#fff"/>
              <path id="Path_977" data-name="Path 977" d="M75.141,162.5l-13.76,10a3.668,3.668,0,0,0-1.332,4.1l5.256,16.176a3.667,3.667,0,0,0,3.487,2.533H85.8a3.667,3.667,0,0,0,3.487-2.533L94.543,176.6a3.668,3.668,0,0,0-1.332-4.1l-13.76-10A3.669,3.669,0,0,0,75.141,162.5Z" transform="translate(0.873 0.919)" fill="#243056"/>
            </g>
            <text id="Designe" transform="translate(179 497)" fill="#fff" font-size="15" font-family="Montserrat" font-weight="700"><tspan x="0" y="15">Designe</tspan></text>
            <text id="Adobe" transform="translate(195 518)" fill="#fff" font-size="10" font-family="Montserrat" font-weight="700"><tspan x="0" y="10">Adobe</tspan></text>
          </g>
        </g>
        <path id="Path_984" data-name="Path 984" d="M13.521,0H1.463A1.465,1.465,0,0,0,0,1.463v8.956a1.465,1.465,0,0,0,1.463,1.463H6.029v1.346H5.736a1.464,1.464,0,0,0-1.463,1.463.293.293,0,0,0,.293.293h5.853a.293.293,0,0,0,.293-.293,1.465,1.465,0,0,0-1.463-1.463H8.956V11.882h4.566a1.465,1.465,0,0,0,1.463-1.463V1.463A1.465,1.465,0,0,0,13.521,0ZM1.463.585H13.521a.879.879,0,0,1,.878.878V8.956H13.053V2.224a.293.293,0,0,0-.293-.293H10.419a.293.293,0,0,0-.293.293V8.956H8.661c0-.3-.011-.6-.024-.891a18.825,18.825,0,0,0-.229-2.342,1.464,1.464,0,0,0,.4-1.909L7.794,2.058a.293.293,0,0,0-.507,0L6.272,3.815a1.463,1.463,0,0,0,.322,1.847,18.578,18.578,0,0,0-.247,2.4c-.013.293-.021.591-.025.891H4.858V4.566a.291.291,0,0,0-.029-.126l0,0L3.657,2.093a.293.293,0,0,0-.524,0L1.962,4.435l0,0a.291.291,0,0,0-.029.126v4.39H.585V1.463A.879.879,0,0,1,1.463.585Zm9.248,8.37V2.517h1.756V3.1h-.293a.293.293,0,0,0,0,.585h.293v.878h-.293a.293.293,0,0,0,0,.585h.293v.878h-.293a.293.293,0,0,0,0,.585h.293V7.785h-.293a.293.293,0,0,0,0,.585h.293v.585ZM7.541,6.009a1.465,1.465,0,0,0,.316-.035c.054.348.134.964.181,1.811H6.948c.05-.847.133-1.472.191-1.832a1.465,1.465,0,0,0,.4.056Zm0-.585A.879.879,0,0,1,6.78,4.107l.761-1.318L8.3,4.107a.878.878,0,0,1-.761,1.316ZM6.922,8.37H8.064c.006.192.01.388.012.585H6.908C6.911,8.759,6.915,8.564,6.922,8.37Zm-3.234.585v-4.1h.585v4.1Zm-1.171,0v-4.1H3.1v4.1ZM2.7,4.273l.7-1.394.7,1.394ZM10.076,14.4H4.908a.88.88,0,0,1,.828-.585H9.248a.879.879,0,0,1,.828.585ZM8.37,13.228H6.614V11.882H8.37ZM13.521,11.3H1.463a.879.879,0,0,1-.878-.878V9.541H14.4v.878A.879.879,0,0,1,13.521,11.3Zm0,0" transform="translate(9501.803 1888.519)" fill="#fff" stroke="#fff" stroke-width="0.3"/>
      </g>
    </g>
    <g id="Group_11577" data-name="Group 11577" transform="translate(473 -67)">
      <g id="Group_11554-2" data-name="Group 11554" transform="translate(8869.178 1356.505)">
        <g id="Group_11553-2" data-name="Group 11553" transform="translate(0 -29.892)">
          <g id="Group_11551-2" data-name="Group 11551" transform="translate(64.073 329.785)">
            <path id="Path_968-2" data-name="Path 968" d="M222.749,171.458l-10.976-7.878a3.588,3.588,0,0,0-2.095-.675H74.768a3.594,3.594,0,0,0-3.593,3.595v31.511a3.594,3.594,0,0,0,3.593,3.593H212.4a3.591,3.591,0,0,0,3.393-2.409l8.251-23.633A3.591,3.591,0,0,0,222.749,171.458Z" transform="translate(6.994 1.515)" fill="#fff"/>
            <path id="Path_969-2" data-name="Path 969" d="M220.412,171.66l-10.693-7.482a3.562,3.562,0,0,0-2.041-.64H76.256a3.457,3.457,0,0,0-3.5,3.413v29.924a3.458,3.458,0,0,0,3.5,3.413H210.333a3.5,3.5,0,0,0,3.3-2.289l8.038-22.442A3.363,3.363,0,0,0,220.412,171.66Z" transform="translate(7.85 1.858)" fill="#243056"/>
            <path id="Path_970-2" data-name="Path 970" d="M74.336,200.108a3.52,3.52,0,0,0,1.064.177h77.313l36.749-36.747H110.906Z" transform="translate(8.706 1.858)" fill="#fff" opacity="0.08" style="mix-blend-mode: luminosity;isolation: isolate"/>
            <path id="Path_971-2" data-name="Path 971" d="M159.133,200.285l28.652-28.652-10.656-7.456a3.562,3.562,0,0,0-2.041-.64H169.7l-36.749,36.747Z" transform="translate(40.44 1.858)" fill="#fff" opacity="0.08" style="mix-blend-mode: luminosity;isolation: isolate"/>
            <g id="Group_11550-2" data-name="Group 11550" transform="translate(104.47 186.77)">
              <g id="Group_11547-2" data-name="Group 11547">
                <path id="Path_972-2" data-name="Path 972" d="M89.79,176.614H87.478a.578.578,0,1,1,0-1.156H89.79a.578.578,0,0,1,0,1.156Z" transform="translate(-86.9 -175.458)" fill="#fff"/>
              </g>
              <g id="Group_11548-2" data-name="Group 11548" transform="translate(7.077)">
                <path id="Path_973-2" data-name="Path 973" d="M173.1,176.614h-4.766a.578.578,0,1,1,0-1.156H173.1a.578.578,0,0,1,0,1.156Zm-9.534,0H158.8a.578.578,0,1,1,0-1.156h4.765a.578.578,0,1,1,0,1.156Zm-9.531,0h-4.768a.578.578,0,1,1,0-1.156h4.768a.578.578,0,0,1,0,1.156Zm-9.534,0h-4.766a.578.578,0,0,1,0-1.156H144.5a.578.578,0,0,1,0,1.156Zm-9.531,0H130.2a.578.578,0,0,1,0-1.156h4.768a.578.578,0,0,1,0,1.156Zm-9.534,0h-4.766a.578.578,0,0,1,0-1.156h4.766a.578.578,0,1,1,0,1.156Zm-9.534,0h-4.765a.578.578,0,1,1,0-1.156H115.9a.578.578,0,1,1,0,1.156Zm-9.531,0H101.6a.578.578,0,0,1,0-1.156h4.766a.578.578,0,0,1,0,1.156Zm-9.534,0H92.069a.578.578,0,1,1,0-1.156h4.766a.578.578,0,0,1,0,1.156Z" transform="translate(-91.491 -175.458)" fill="#fff"/>
              </g>
              <g id="Group_11549-2" data-name="Group 11549" transform="translate(92.869)">
                <path id="Path_974-2" data-name="Path 974" d="M150.039,176.614h-2.312a.578.578,0,1,1,0-1.156h2.312a.578.578,0,1,1,0,1.156Z" transform="translate(-147.149 -175.458)" fill="#fff"/>
              </g>
            </g>
            <path id="Path_975-2" data-name="Path 975" d="M76.014,162.716l-16.247,11.8a3.666,3.666,0,0,0-1.332,4.1l6.206,19.1a3.664,3.664,0,0,0,3.487,2.533H88.21a3.664,3.664,0,0,0,3.487-2.533l6.206-19.1a3.664,3.664,0,0,0-1.332-4.1l-16.247-11.8A3.669,3.669,0,0,0,76.014,162.716Z" transform="translate(0 1.034)" fill="#ccc" opacity="0.5" style="mix-blend-mode: multiply;isolation: isolate"/>
            <path id="Path_976-2" data-name="Path 976" d="M76.014,160.807l-16.247,11.8a3.664,3.664,0,0,0-1.332,4.1l6.206,19.1a3.666,3.666,0,0,0,3.487,2.533H88.21A3.666,3.666,0,0,0,91.7,195.81l6.206-19.1a3.661,3.661,0,0,0-1.332-4.1l-16.247-11.8A3.664,3.664,0,0,0,76.014,160.807Z" transform="translate(0)" fill="#fff"/>
            <path id="Path_977-2" data-name="Path 977" d="M75.141,162.5l-13.76,10a3.668,3.668,0,0,0-1.332,4.1l5.256,16.176a3.667,3.667,0,0,0,3.487,2.533H85.8a3.667,3.667,0,0,0,3.487-2.533L94.543,176.6a3.668,3.668,0,0,0-1.332-4.1l-13.76-10A3.669,3.669,0,0,0,75.141,162.5Z" transform="translate(0.873 0.919)" fill="#243056"/>
          </g>
          <text id="FrontEnd" transform="translate(179 497)" fill="#fff" font-size="15" font-family="Montserrat" font-weight="700"><tspan x="0" y="15">FrontEnd</tspan></text>
          <text id="Reactjs" transform="translate(195 518)" fill="#fff" font-size="10" font-family="Montserrat" font-weight="700"><tspan x="0" y="10">Reactjs</tspan></text>
        </g>
      </g>
      <g id="SVGRepo_iconCarrier" transform="translate(8999.995 1824.633)">
        <path id="Path_985" data-name="Path 985" d="M10.7,16.9c.4.018.81.031,1.225.031s.833-.009,1.239-.031a17.6,17.6,0,0,1-1.231,1.431l.006-.006c-.422-.437-.827-.9-1.209-1.386ZM6.551,16.32a20.169,20.169,0,0,0,2.734.476l.1.008a21.7,21.7,0,0,0,1.861,2.236l-.008-.009a6.569,6.569,0,0,1-3.7,2.084l-.04.006H7.482a1.071,1.071,0,0,1-.5-.123l.006,0c-.606-.346-.869-1.67-.665-3.372.049-.419.129-.86.227-1.31Zm10.773-.009a11.3,11.3,0,0,1,.224,1.233l.007.063c.209,1.7-.049,3.024-.65,3.377a.961.961,0,0,1-.465.118h-.048a6.614,6.614,0,0,1-3.738-2.07l-.005-.006a21.082,21.082,0,0,0,1.8-2.161l.042-.061a20.857,20.857,0,0,0,2.979-.522l-.144.031ZM7.4,13.591c.182.357.373.713.583,1.07s.423.7.642,1.041c-.633-.093-1.243-.209-1.827-.351.164-.574.369-1.167.6-1.761Zm9.057-.018c.241.6.446,1.2.616,1.774-.583.143-1.2.264-1.836.355.219-.342.437-.694.642-1.054s.4-.718.579-1.075ZM5.825,9.675a20.9,20.9,0,0,0,1.056,2.846l-.055-.133a19.535,19.535,0,0,0-.951,2.55l-.038.149A12.526,12.526,0,0,1,4.506,14.6l.084.032c-1.577-.671-2.6-1.554-2.6-2.253s1.02-1.586,2.6-2.255c.383-.164.8-.312,1.234-.45Zm12.2,0c.441.136.86.289,1.252.453,1.577.674,2.6,1.555,2.6,2.255s-1.025,1.584-2.6,2.254c-.383.164-.8.311-1.234.449a21.447,21.447,0,0,0-1.057-2.851l.055.137a19.593,19.593,0,0,0,.95-2.549l.039-.15Zm-2.79-.614c.633.094,1.243.209,1.827.353-.164.576-.369,1.167-.6,1.761-.182-.355-.373-.713-.583-1.069s-.423-.7-.642-1.044Zm-6.611,0c-.219.343-.437.694-.641,1.057s-.4.712-.579,1.069c-.241-.6-.446-1.193-.616-1.773.583-.136,1.2-.258,1.835-.351Zm3.31-.232c.674,0,1.345.031,2.005.085q.555.8,1.077,1.694.508.874.927,1.772c-.281.6-.588,1.193-.923,1.776-.346.6-.7,1.173-1.075,1.7-.663.058-1.335.089-2.013.089s-1.345-.032-2.005-.085c-.369-.53-.73-1.1-1.077-1.694s-.648-1.174-.927-1.772c.276-.6.588-1.2.923-1.78.346-.6.7-1.171,1.075-1.7q.995-.087,2.013-.089Zm-.014-2.391a18.2,18.2,0,0,1,1.209,1.385l.029.039c-.4-.018-.81-.031-1.225-.031s-.833.009-1.239.031a17.318,17.318,0,0,1,1.231-1.431l-.006.006ZM7.472,3.656a6.625,6.625,0,0,1,3.738,2.07l.005.006A21.03,21.03,0,0,0,9.418,7.9l-.042.061a20.74,20.74,0,0,0-2.978.52l.143-.031c-.1-.446-.178-.878-.231-1.293-.209-1.7.049-3.024.65-3.375a1.3,1.3,0,0,1,.511-.12h0Zm8.9-.018v.006H16.4a1.034,1.034,0,0,1,.482.119l-.006,0c.606.348.869,1.671.665,3.373-.049.419-.129.861-.227,1.311a19.772,19.772,0,0,0-2.736-.478l-.093-.008A21.814,21.814,0,0,0,12.625,5.72l.009.009a6.585,6.585,0,0,1,3.7-2.083l.041-.007Zm0-.993a7.464,7.464,0,0,0-4.445,2.381l-.006.007a7.449,7.449,0,0,0-4.41-2.365l-.041-.005H7.44a1.991,1.991,0,0,0-.985.259l.01-.005c-1.252.722-1.533,2.972-.886,5.8-2.772.856-4.575,2.225-4.575,3.667S2.817,15.2,5.6,16.05c-.641,2.835-.355,5.089.9,5.81a1.929,1.929,0,0,0,.958.251H7.5a7.462,7.462,0,0,0,4.445-2.383l.006-.007a7.446,7.446,0,0,0,4.41,2.365l.041.005h.038a2,2,0,0,0,.979-.256l-.01.005c1.251-.721,1.533-2.972.886-5.8,2.762-.849,4.565-2.22,4.565-3.665s-1.812-2.82-4.592-3.672c.641-2.832.355-5.088-.9-5.81a1.949,1.949,0,0,0-.968-.254h-.027Zm-2.411,9.735a2.035,2.035,0,1,1-.6-1.44h0a2.029,2.029,0,0,1,.6,1.44h0Z" fill="#fff" stroke="#fff" stroke-width="0.5"/>
      </g>
    </g>
    <g id="Group_11576" data-name="Group 11576" transform="translate(518.398 -67)">
      <g id="Group_11554-3" data-name="Group 11554" transform="translate(8623.178 1356.505)">
        <g id="Group_11553-3" data-name="Group 11553" transform="translate(0 -29.892)">
          <g id="Group_11551-3" data-name="Group 11551" transform="translate(64.073 329.785)">
            <path id="Path_968-3" data-name="Path 968" d="M222.749,171.458l-10.976-7.878a3.588,3.588,0,0,0-2.095-.675H74.768a3.594,3.594,0,0,0-3.593,3.595v31.511a3.594,3.594,0,0,0,3.593,3.593H212.4a3.591,3.591,0,0,0,3.393-2.409l8.251-23.633A3.591,3.591,0,0,0,222.749,171.458Z" transform="translate(6.994 1.515)" fill="#fff"/>
            <path id="Path_969-3" data-name="Path 969" d="M220.412,171.66l-10.693-7.482a3.562,3.562,0,0,0-2.041-.64H76.256a3.457,3.457,0,0,0-3.5,3.413v29.924a3.458,3.458,0,0,0,3.5,3.413H210.333a3.5,3.5,0,0,0,3.3-2.289l8.038-22.442A3.363,3.363,0,0,0,220.412,171.66Z" transform="translate(7.85 1.858)" fill="#243056"/>
            <path id="Path_970-3" data-name="Path 970" d="M74.336,200.108a3.52,3.52,0,0,0,1.064.177h77.313l36.749-36.747H110.906Z" transform="translate(8.706 1.858)" fill="#fff" opacity="0.08" style="mix-blend-mode: luminosity;isolation: isolate"/>
            <path id="Path_971-3" data-name="Path 971" d="M159.133,200.285l28.652-28.652-10.656-7.456a3.562,3.562,0,0,0-2.041-.64H169.7l-36.749,36.747Z" transform="translate(40.44 1.858)" fill="#fff" opacity="0.08" style="mix-blend-mode: luminosity;isolation: isolate"/>
            <g id="Group_11550-3" data-name="Group 11550" transform="translate(104.47 186.77)">
              <g id="Group_11547-3" data-name="Group 11547">
                <path id="Path_972-3" data-name="Path 972" d="M89.79,176.614H87.478a.578.578,0,1,1,0-1.156H89.79a.578.578,0,0,1,0,1.156Z" transform="translate(-86.9 -175.458)" fill="#fff"/>
              </g>
              <g id="Group_11548-3" data-name="Group 11548" transform="translate(7.077)">
                <path id="Path_973-3" data-name="Path 973" d="M173.1,176.614h-4.766a.578.578,0,1,1,0-1.156H173.1a.578.578,0,0,1,0,1.156Zm-9.534,0H158.8a.578.578,0,1,1,0-1.156h4.765a.578.578,0,1,1,0,1.156Zm-9.531,0h-4.768a.578.578,0,1,1,0-1.156h4.768a.578.578,0,0,1,0,1.156Zm-9.534,0h-4.766a.578.578,0,0,1,0-1.156H144.5a.578.578,0,0,1,0,1.156Zm-9.531,0H130.2a.578.578,0,0,1,0-1.156h4.768a.578.578,0,0,1,0,1.156Zm-9.534,0h-4.766a.578.578,0,0,1,0-1.156h4.766a.578.578,0,1,1,0,1.156Zm-9.534,0h-4.765a.578.578,0,1,1,0-1.156H115.9a.578.578,0,1,1,0,1.156Zm-9.531,0H101.6a.578.578,0,0,1,0-1.156h4.766a.578.578,0,0,1,0,1.156Zm-9.534,0H92.069a.578.578,0,1,1,0-1.156h4.766a.578.578,0,0,1,0,1.156Z" transform="translate(-91.491 -175.458)" fill="#fff"/>
              </g>
              <g id="Group_11549-3" data-name="Group 11549" transform="translate(92.869)">
                <path id="Path_974-3" data-name="Path 974" d="M150.039,176.614h-2.312a.578.578,0,1,1,0-1.156h2.312a.578.578,0,1,1,0,1.156Z" transform="translate(-147.149 -175.458)" fill="#fff"/>
              </g>
            </g>
            <path id="Path_975-3" data-name="Path 975" d="M76.014,162.716l-16.247,11.8a3.666,3.666,0,0,0-1.332,4.1l6.206,19.1a3.664,3.664,0,0,0,3.487,2.533H88.21a3.664,3.664,0,0,0,3.487-2.533l6.206-19.1a3.664,3.664,0,0,0-1.332-4.1l-16.247-11.8A3.669,3.669,0,0,0,76.014,162.716Z" transform="translate(0 1.034)" fill="#ccc" opacity="0.5" style="mix-blend-mode: multiply;isolation: isolate"/>
            <path id="Path_976-3" data-name="Path 976" d="M76.014,160.807l-16.247,11.8a3.664,3.664,0,0,0-1.332,4.1l6.206,19.1a3.666,3.666,0,0,0,3.487,2.533H88.21A3.666,3.666,0,0,0,91.7,195.81l6.206-19.1a3.661,3.661,0,0,0-1.332-4.1l-16.247-11.8A3.664,3.664,0,0,0,76.014,160.807Z" transform="translate(0)" fill="#fff"/>
            <path id="Path_977-3" data-name="Path 977" d="M75.141,162.5l-13.76,10a3.668,3.668,0,0,0-1.332,4.1l5.256,16.176a3.667,3.667,0,0,0,3.487,2.533H85.8a3.667,3.667,0,0,0,3.487-2.533L94.543,176.6a3.668,3.668,0,0,0-1.332-4.1l-13.76-10A3.669,3.669,0,0,0,75.141,162.5Z" transform="translate(0.873 0.919)" fill="#243056"/>
          </g>
          <text id="Backend" transform="translate(179 497)" fill="#fff" font-size="15" font-family="Montserrat" font-weight="700"><tspan x="0" y="15">Backend</tspan></text>
          <text id="Larevel_SQL" data-name="Larevel &amp; SQL" transform="translate(195 518)" fill="#fff" font-size="10" font-family="Montserrat" font-weight="700"><tspan x="0" y="10">Larevel </tspan></text>
        </g>
      </g>
      <g id="SVGRepo_iconCarrier-2" data-name="SVGRepo_iconCarrier" transform="translate(8753.507 1829.924)">
        <path id="Path_986" data-name="Path 986" d="M24.586,7.6h-.039q.308.26-.154.371l-3.352.851,3.042,3.964q.154.222.077.316a1.3,1.3,0,0,1-.377.234l-.008,0-3.929,1.373q-3.737,1.26-4.084,1.371h-.039a1.544,1.544,0,0,1-.665.148h-.027a.879.879,0,0,1-.573-.4l0,0q-.385-.481-2.812-4.7-4.125,1.037-5.165,1.26a1,1,0,0,1-.348.061.987.987,0,0,1-.921-.608l0-.007-1-2.114Q.314,1.67.121,1.189-.225.448.429.374L.93.336Q4.941.041,5.4,0c.023,0,.051,0,.078,0a1.089,1.089,0,0,1,.411.08l-.007,0A.953.953,0,0,1,6.167.37l0,0,5.972,9.595,7.474-1.7L17.149,4.894q-.27-.371.347-.444L20.964,3.9a.759.759,0,0,1,.158-.016.779.779,0,0,1,.233.036h-.006a1.1,1.1,0,0,1,.383.314l0,0,1.5,1.778Q24.47,7.486,24.586,7.6Zm-13.6,2.667q.193-.037.039-.222L5.434.743A.157.157,0,0,0,5.3.668H5.28L1.2,1q-.039,0-.039.074a.316.316,0,0,0,.039.149v0l5.047,10q.039.074.077.074h.193l2.735-.632q1.695-.405,1.737-.405Zm11.79,2.112-2.467-3.26a.328.328,0,0,0-.133-.129h0a.293.293,0,0,0-.056-.005A.3.3,0,0,0,20,9h0l-7.319,1.853,2.428,3.926q.116.185.193.2a.369.369,0,0,0,.195-.019h0L22.7,12.6q.154-.037.154-.074a.173.173,0,0,0-.039-.093h0Zm.462-4.964q.308-.074.231-.185-1.891-2.26-2.119-2.556a.278.278,0,0,0-.25-.154.289.289,0,0,0-.06.006h0L18.268,5q-.154.037-.039.185l2.2,2.889q1.425-.333,2.812-.667Z" fill="#fff" stroke="#fff" stroke-width="1"/>
      </g>
    </g>
    <g id="Group_11607" data-name="Group 11607" transform="translate(-8)">
      <g id="Group_11558" data-name="Group 11558" transform="translate(8513.623 1291)">
        <g id="Group_11556" data-name="Group 11556">
          <g id="Group_11554-4" data-name="Group 11554" transform="translate(603 64.505)">
            <g id="Group_11553-4" data-name="Group 11553" transform="translate(0 -29.892)">
              <g id="Group_11551-4" data-name="Group 11551" transform="translate(64.073 329.785)">
                <path id="Path_968-4" data-name="Path 968" d="M222.749,171.458l-10.976-7.878a3.588,3.588,0,0,0-2.095-.675H74.768a3.594,3.594,0,0,0-3.593,3.595v31.511a3.594,3.594,0,0,0,3.593,3.593H212.4a3.591,3.591,0,0,0,3.393-2.409l8.251-23.633A3.591,3.591,0,0,0,222.749,171.458Z" transform="translate(6.994 1.515)" fill="#fff"/>
                <path id="Path_969-4" data-name="Path 969" d="M220.412,171.66l-10.693-7.482a3.562,3.562,0,0,0-2.041-.64H76.256a3.457,3.457,0,0,0-3.5,3.413v29.924a3.458,3.458,0,0,0,3.5,3.413H210.333a3.5,3.5,0,0,0,3.3-2.289l8.038-22.442A3.363,3.363,0,0,0,220.412,171.66Z" transform="translate(7.85 1.858)" fill="#243056"/>
                <path id="Path_970-4" data-name="Path 970" d="M74.336,200.108a3.52,3.52,0,0,0,1.064.177h77.313l36.749-36.747H110.906Z" transform="translate(8.706 1.858)" fill="#fff" opacity="0.08" style="mix-blend-mode: luminosity;isolation: isolate"/>
                <path id="Path_971-4" data-name="Path 971" d="M159.133,200.285l28.652-28.652-10.656-7.456a3.562,3.562,0,0,0-2.041-.64H169.7l-36.749,36.747Z" transform="translate(40.44 1.858)" fill="#fff" opacity="0.08" style="mix-blend-mode: luminosity;isolation: isolate"/>
                <g id="Group_11550-4" data-name="Group 11550" transform="translate(104.47 186.77)">
                  <g id="Group_11547-4" data-name="Group 11547">
                    <path id="Path_972-4" data-name="Path 972" d="M89.79,176.614H87.478a.578.578,0,1,1,0-1.156H89.79a.578.578,0,0,1,0,1.156Z" transform="translate(-86.9 -175.458)" fill="#fff"/>
                  </g>
                  <g id="Group_11548-4" data-name="Group 11548" transform="translate(7.077)">
                    <path id="Path_973-4" data-name="Path 973" d="M173.1,176.614h-4.766a.578.578,0,1,1,0-1.156H173.1a.578.578,0,0,1,0,1.156Zm-9.534,0H158.8a.578.578,0,1,1,0-1.156h4.765a.578.578,0,1,1,0,1.156Zm-9.531,0h-4.768a.578.578,0,1,1,0-1.156h4.768a.578.578,0,0,1,0,1.156Zm-9.534,0h-4.766a.578.578,0,0,1,0-1.156H144.5a.578.578,0,0,1,0,1.156Zm-9.531,0H130.2a.578.578,0,0,1,0-1.156h4.768a.578.578,0,0,1,0,1.156Zm-9.534,0h-4.766a.578.578,0,0,1,0-1.156h4.766a.578.578,0,1,1,0,1.156Zm-9.534,0h-4.765a.578.578,0,1,1,0-1.156H115.9a.578.578,0,1,1,0,1.156Zm-9.531,0H101.6a.578.578,0,0,1,0-1.156h4.766a.578.578,0,0,1,0,1.156Zm-9.534,0H92.069a.578.578,0,1,1,0-1.156h4.766a.578.578,0,0,1,0,1.156Z" transform="translate(-91.491 -175.458)" fill="#fff"/>
                  </g>
                  <g id="Group_11549-4" data-name="Group 11549" transform="translate(92.869)">
                    <path id="Path_974-4" data-name="Path 974" d="M150.039,176.614h-2.312a.578.578,0,1,1,0-1.156h2.312a.578.578,0,1,1,0,1.156Z" transform="translate(-147.149 -175.458)" fill="#fff"/>
                  </g>
                </g>
                <path id="Path_975-4" data-name="Path 975" d="M76.014,162.716l-16.247,11.8a3.666,3.666,0,0,0-1.332,4.1l6.206,19.1a3.664,3.664,0,0,0,3.487,2.533H88.21a3.664,3.664,0,0,0,3.487-2.533l6.206-19.1a3.664,3.664,0,0,0-1.332-4.1l-16.247-11.8A3.669,3.669,0,0,0,76.014,162.716Z" transform="translate(0 1.034)" fill="#ccc" opacity="0.5" style="mix-blend-mode: multiply;isolation: isolate"/>
                <path id="Path_976-4" data-name="Path 976" d="M76.014,160.807l-16.247,11.8a3.664,3.664,0,0,0-1.332,4.1l6.206,19.1a3.666,3.666,0,0,0,3.487,2.533H88.21A3.666,3.666,0,0,0,91.7,195.81l6.206-19.1a3.661,3.661,0,0,0-1.332-4.1l-16.247-11.8A3.664,3.664,0,0,0,76.014,160.807Z" transform="translate(0)" fill="#fff"/>
                <path id="Path_977-4" data-name="Path 977" d="M75.141,162.5l-13.76,10a3.668,3.668,0,0,0-1.332,4.1l5.256,16.176a3.667,3.667,0,0,0,3.487,2.533H85.8a3.667,3.667,0,0,0,3.487-2.533L94.543,176.6a3.668,3.668,0,0,0-1.332-4.1l-13.76-10A3.669,3.669,0,0,0,75.141,162.5Z" transform="translate(0.873 0.919)" fill="#243056"/>
              </g>
              <text id="Application" transform="translate(172 495.398)" fill="#fff" font-size="15" font-family="Montserrat" font-weight="700"><tspan x="0" y="15">Application</tspan></text>
              <text id="Flutter" transform="translate(195 518)" fill="#fff" font-size="10" font-family="Montserrat" font-weight="700"><tspan x="0" y="10">Flutter</tspan></text>
            </g>
          </g>
        </g>
      </g>
      <g id="SVGRepo_iconCarrier-3" data-name="SVGRepo_iconCarrier" transform="translate(9242.121 1824.931)">
        <path id="Path_987" data-name="Path 987" d="M14.98,11.223,9.008,17.184l5.972,5.972h6.806l-5.963-5.97,5.963-5.963h-6.8ZM14.968,1,3.879,12.08,7.294,15.5,21.77,1.017H14.979Z" transform="translate(0)" fill="#fff"/>
      </g>
    </g>
  </g>
</svg>
